<svg width="1440" height="734" viewBox="0 0 1440 734" fill="none" xmlns="http://www.w3.org/2000/svg">
<mask id="mask0_42_1" style="mask-type:alpha" maskUnits="userSpaceOnUse" x="0" y="0" width="1440" height="734">
<rect width="1440" height="734" fill="#273C75"/>
</mask>
<g mask="url(#mask0_42_1)">
<mask id="mask1_42_1" style="mask-type:alpha" maskUnits="userSpaceOnUse" x="0" y="0" width="1625" height="734">
<rect width="1624.54" height="734" fill="#273C75"/>
</mask>
<g mask="url(#mask1_42_1)">
<mask id="mask2_42_1" style="mask-type:alpha" maskUnits="userSpaceOnUse" x="0" y="0" width="1625" height="734">
<rect width="1624.54" height="734" fill="#273C75"/>
</mask>
<g mask="url(#mask2_42_1)">
<g clip-path="url(#clip0_42_1)">
<path d="M-10.3365 372.916L-15.3659 374.938L-13.484 380.33L-8.45586 378.313L-10.3365 372.916ZM-87.8647 150.605L-89.745 145.209L-94.7743 147.231L-92.8927 152.622L-87.8647 150.605ZM-36.695 130.059L-33.0079 125.872L-35.4408 123.406L-38.5761 124.665L-36.695 130.059ZM62.6013 230.684L58.914 234.872L66.897 242.963L67.9453 231.234L62.6013 230.684ZM75.6202 84.9623L73.7395 79.5683L70.5965 80.8303L70.276 84.414L75.6202 84.9623ZM126.468 64.5455L131.496 62.5267L129.616 57.1328L124.587 59.1521L126.468 64.5455ZM203.996 286.861L205.877 292.252L210.905 290.235L209.025 284.838L203.996 286.861ZM152.182 307.665L147.154 309.682L149.036 315.073L154.064 313.056L152.182 307.665ZM107.641 179.936L112.669 177.917L102.296 179.383L107.641 179.936ZM98.069 286.102L99.9504 291.493L103.09 290.234L103.413 286.652L98.069 286.102ZM69.4279 297.599L65.7465 301.794L68.1786 304.252L71.308 302.996L69.4279 297.599ZM-3.06513 224.385L0.614435 220.195L-8.09454 226.408L-3.06513 224.385ZM41.4767 352.112L43.3573 357.508L48.3854 355.491L46.5048 350.094L41.4767 352.112ZM-5.30834 370.899L-82.8367 148.588L-92.8927 152.622L-15.3659 374.938L-5.30834 370.899ZM-85.9831 155.997L-34.8139 135.453L-38.5761 124.665L-89.745 145.209L-85.9831 155.997ZM-40.3821 134.246L58.914 234.872L66.2882 226.497L-33.0079 125.872L-40.3821 134.246ZM67.9453 231.234L80.9645 85.51L70.276 84.414L57.2568 230.135L67.9453 231.234ZM77.5016 90.3558L128.349 69.9395L124.587 59.1521L73.7395 79.5683L77.5016 90.3558ZM121.44 66.5648L198.968 288.878L209.025 284.838L131.496 62.5267L121.44 66.5648ZM202.115 281.464L150.302 302.268L154.064 313.056L205.877 292.252L202.115 281.464ZM157.211 305.642L112.669 177.917L102.612 181.955L147.154 309.682L157.211 305.642ZM102.296 179.383L92.7253 285.547L103.413 286.652L112.984 180.489L102.296 179.383ZM96.1884 280.705L67.546 292.208L71.308 302.996L99.9504 291.493L96.1884 280.705ZM73.1074 293.409L0.614435 220.195L-6.7465 228.58L65.7465 301.794L73.1074 293.409ZM-8.09454 226.408L36.4478 354.134L46.5048 350.094L1.96246 222.368L-8.09454 226.408ZM39.5953 346.72L-12.2178 367.525L-8.45586 378.313L43.3573 357.508L39.5953 346.72ZM248.212 241.557L246.046 246.83L248.212 241.557ZM187.297 66.8823L192.126 69.3993L187.297 66.8823ZM402.042 179.791L406.9 182.242L402.042 179.791ZM350.702 159.87L345.609 158.049L345.605 158.063L350.702 159.87ZM314.828 56.9989L312.138 61.9838L312.194 62.0185L312.252 62.0523L314.828 56.9989ZM238.234 87.7523L233.179 85.815L233.175 85.8259L238.234 87.7523ZM274.109 190.624L271.321 195.547L271.375 195.582L271.43 195.616L274.109 190.624ZM332.877 232.897C300.009 246.095 272.694 246.833 250.377 236.285L246.046 246.83C271.755 258.978 302.138 257.537 336.639 243.685L332.877 232.897ZM250.377 236.285C228.206 225.81 210.172 202.307 196.875 164.177L186.818 168.216C200.648 207.873 220.191 234.608 246.046 246.83L250.377 236.285ZM196.875 164.177C182.732 123.623 181.726 92.3531 192.126 69.3993L182.468 64.3658C170.202 91.4414 172.229 126.381 186.818 168.216L196.875 164.177ZM192.126 69.3993C202.656 46.1558 223.805 27.6771 256.703 14.4674L252.941 3.67946C218.472 17.5197 194.604 37.58 182.468 64.3658L192.126 69.3993ZM256.703 14.4674C289.602 1.25779 316.861 0.30053 339.025 10.4161L343.23 -0.182897C317.688 -11.8409 287.41 -10.1608 252.941 3.67946L256.703 14.4674ZM339.025 10.4161C360.913 20.4066 379.285 44.703 393.427 85.2578L403.484 81.2196C388.895 39.3849 369.048 11.6006 343.23 -0.182897L339.025 10.4161ZM393.427 85.2578C406.724 123.387 407.499 153.82 397.184 177.34L406.9 182.242C418.929 154.813 417.314 120.877 403.484 81.2196L393.427 85.2578ZM397.184 177.34C386.801 201.016 365.744 219.7 332.877 232.897L336.639 243.685C371.139 229.832 394.939 209.516 406.9 182.242L397.184 177.34ZM320.146 196.391C338.447 189.043 350.87 177.666 355.8 161.678L345.605 158.063C342.042 169.622 332.84 178.996 316.384 185.604L320.146 196.391ZM355.795 161.691C360.745 145.772 358.506 125.83 350.384 102.541L340.327 106.579C348.096 128.857 349.421 145.788 345.609 158.049L355.795 161.691ZM350.384 102.541C341.606 77.37 330.851 59.8315 317.404 51.9448L312.252 62.0523C322.173 67.8709 331.769 82.0394 340.327 106.579L350.384 102.541ZM317.517 52.0132C304.094 43.6815 287.82 43.9841 269.554 51.3182L273.316 62.1056C289.808 55.4844 302.462 55.9782 312.138 61.9838L317.517 52.0132ZM269.554 51.3182C251.088 58.7328 238.437 70.0323 233.179 85.815L243.29 89.6896C247.113 78.2134 256.597 68.8188 273.316 62.1056L269.554 51.3182ZM233.175 85.8259C228.106 101.14 230.827 121.874 239.597 147.024L249.654 142.986C241.089 118.425 239.548 100.992 243.293 89.6787L233.175 85.8259ZM239.597 147.024C247.71 170.29 258.098 186.932 271.321 195.547L276.896 185.701C266.699 179.058 257.431 165.287 249.654 142.986L239.597 147.024ZM271.43 195.616C285.13 204.074 301.646 203.82 320.146 196.391L316.384 185.604C299.699 192.303 286.777 191.8 276.787 185.632L271.43 195.616ZM463.281 182.751L458.25 184.769L460.134 190.164L465.16 188.145L463.281 182.751ZM385.753 -39.5623L383.871 -44.9563L378.843 -42.9369L380.724 -37.5435L385.753 -39.5623ZM430.164 -57.3943L433.17 -62.1666L430.876 -63.8295L428.283 -62.7882L430.164 -57.3943ZM564.691 40.1048L561.684 44.8771L575.606 54.9668L569.717 38.0848L564.691 40.1048ZM518.345 -92.7992L516.461 -98.1941L511.433 -96.1751L513.314 -90.7812L518.345 -92.7992ZM570.476 -113.734L575.507 -115.752L573.628 -121.145L568.597 -119.127L570.476 -113.734ZM648.005 108.58L649.889 113.975L654.915 111.955L653.036 106.561L648.005 108.58ZM603.275 126.542L600.273 131.318L602.565 132.975L605.154 131.935L603.275 126.542ZM468.866 29.3873L471.867 24.6111L457.963 14.5611L463.837 31.4066L468.866 29.3873ZM515.094 161.947L516.973 167.34L522.004 165.322L520.119 159.927L515.094 161.947ZM468.307 180.731L390.781 -41.5816L380.724 -37.5435L458.25 184.769L468.307 180.731ZM387.633 -34.1684L432.045 -52.0003L428.283 -62.7882L383.871 -44.9563L387.633 -34.1684ZM427.158 -52.6218L561.684 44.8771L567.697 35.3324L433.17 -62.1666L427.158 -52.6218ZM569.717 38.0848L523.371 -94.8192L513.314 -90.7812L559.665 42.1242L569.717 38.0848ZM520.224 -87.4063L572.36 -108.339L568.597 -119.127L516.461 -98.1941L520.224 -87.4063ZM565.45 -111.714L642.979 110.599L653.036 106.561L575.507 -115.752L565.45 -111.714ZM646.125 103.186L601.391 121.147L605.154 131.935L649.889 113.975L646.125 103.186ZM606.271 121.764L471.867 24.6111L465.865 34.1641L600.273 131.318L606.271 121.764ZM463.837 31.4066L510.068 163.967L520.119 159.927L473.894 27.3685L463.837 31.4066ZM513.214 156.553L461.402 177.358L465.16 188.145L516.973 167.34L513.214 156.553ZM680.759 95.4277L675.733 97.4471L677.612 102.841L682.644 100.823L680.759 95.4277ZM603.236 -126.885L601.351 -132.279L596.325 -130.259L598.204 -124.866L603.236 -126.885ZM655.048 -147.688L660.074 -149.708L658.195 -155.102L653.164 -153.083L655.048 -147.688ZM685.141 -61.3878L680.115 -59.3679L685.065 -45.171L690.153 -59.3151L685.141 -61.3878ZM726.492 -176.375L724.608 -181.77L722.349 -180.862L721.481 -178.448L726.492 -176.375ZM785.706 -200.151L790.728 -198.121L794.904 -209.993L783.827 -205.545L785.706 -200.151ZM743.349 -79.6422L738.327 -81.6725L736.901 -77.6266L740.126 -75.0336L743.349 -79.6422ZM867.741 20.3531L869.62 25.7466L878.811 22.0554L870.959 15.7436L867.741 20.3531ZM812.387 42.5785L809.1 47.1329L811.464 49.0966L814.266 47.972L812.387 42.5785ZM723.568 -31.1637L726.85 -35.7194L721.241 -40.3773L718.586 -33.318L723.568 -31.1637ZM709.099 7.30858L704.118 5.15423L703.34 7.23127L704.068 9.32719L709.099 7.30858ZM732.572 74.6232L734.456 80.0181L739.482 77.9986L737.603 72.6051L732.572 74.6232ZM685.79 93.4091L608.262 -128.904L598.204 -124.866L675.733 97.4471L685.79 93.4091ZM605.115 -121.491L656.927 -142.296L653.164 -153.083L601.351 -132.279L605.115 -121.491ZM650.017 -145.67L680.115 -59.3679L690.173 -63.4059L660.074 -149.708L650.017 -145.67ZM690.153 -59.3151L731.499 -174.304L721.481 -178.448L680.135 -63.4587L690.153 -59.3151ZM728.372 -170.981L787.585 -194.758L783.827 -205.545L724.608 -181.77L728.372 -170.981ZM780.684 -202.182L738.327 -81.6725L748.37 -77.6113L790.728 -198.121L780.684 -202.182ZM740.126 -75.0336L864.518 24.9617L870.959 15.7436L746.566 -84.2516L740.126 -75.0336ZM865.857 14.9582L810.503 37.1836L814.266 47.972L869.62 25.7466L865.857 14.9582ZM815.67 38.0227L726.85 -35.7194L720.28 -26.6087L809.1 47.1329L815.67 38.0227ZM718.586 -33.318L704.118 5.15423L714.076 9.46156L728.544 -29.0107L718.586 -33.318ZM704.068 9.32719L727.546 76.6432L737.603 72.6051L714.125 5.28914L704.068 9.32719ZM730.692 69.2302L678.88 90.0342L682.644 100.823L734.456 80.0181L730.692 69.2302Z" fill="#161C29" fill-opacity="0.1"/>
</g>
<g clip-path="url(#clip1_42_1)">
<path d="M-220.249 806.465L-225.278 808.488L-223.396 813.879L-218.368 811.862L-220.249 806.465ZM-297.777 584.155L-299.657 578.758L-304.686 580.781L-302.805 586.172L-297.777 584.155ZM-246.607 563.608L-242.92 559.421L-245.353 556.956L-248.488 558.215L-246.607 563.608ZM-147.311 664.234L-150.998 668.421L-143.015 676.513L-141.967 664.783L-147.311 664.234ZM-134.292 518.512L-136.173 513.118L-139.316 514.38L-139.636 517.963L-134.292 518.512ZM-83.4437 498.095L-78.4157 496.076L-80.2965 490.682L-85.3251 492.701L-83.4437 498.095ZM-5.91641 720.41L-4.03503 725.801L0.993111 723.784L-0.887527 718.387L-5.91641 720.41ZM-57.73 741.214L-62.7576 743.231L-60.8762 748.622L-55.8481 746.605L-57.73 741.214ZM-102.271 613.486L-97.2433 611.466L-107.616 612.933L-102.271 613.486ZM-111.843 719.651L-109.962 725.043L-106.822 723.783L-106.499 720.201L-111.843 719.651ZM-140.484 731.148L-144.166 735.344L-141.734 737.801L-138.604 736.545L-140.484 731.148ZM-212.977 657.934L-209.298 653.745L-218.007 659.957L-212.977 657.934ZM-168.435 785.661L-166.555 791.058L-161.527 789.041L-163.407 783.644L-168.435 785.661ZM-215.22 804.448L-292.749 582.138L-302.805 586.172L-225.278 808.488L-215.22 804.448ZM-295.895 589.546L-244.726 569.002L-248.488 558.215L-299.657 578.758L-295.895 589.546ZM-250.294 567.795L-150.998 668.421L-143.624 660.046L-242.92 559.421L-250.294 567.795ZM-141.967 664.783L-128.948 519.059L-139.636 517.963L-152.655 663.684L-141.967 664.783ZM-132.411 523.905L-81.563 503.489L-85.3251 492.701L-136.173 513.118L-132.411 523.905ZM-88.4723 500.114L-10.9445 722.427L-0.887527 718.387L-78.4157 496.076L-88.4723 500.114ZM-7.797 715.013L-59.6101 735.817L-55.8481 746.605L-4.03503 725.801L-7.797 715.013ZM-52.7006 739.191L-97.2433 611.466L-107.3 615.505L-62.7576 743.231L-52.7006 739.191ZM-107.616 612.933L-117.187 719.096L-106.499 720.201L-96.9277 614.039L-107.616 612.933ZM-113.724 714.255L-142.366 725.757L-138.604 736.545L-109.962 725.043L-113.724 714.255ZM-136.805 726.959L-209.298 653.745L-216.659 662.13L-144.166 735.344L-136.805 726.959ZM-218.007 659.957L-173.464 787.684L-163.407 783.644L-207.95 655.917L-218.007 659.957ZM-170.317 780.27L-222.13 801.074L-218.368 811.862L-166.555 791.058L-170.317 780.27ZM38.2994 675.107L36.1341 680.38L38.2994 675.107ZM-22.6152 500.432L-17.7863 502.949L-22.6152 500.432ZM192.13 613.341L196.988 615.791L192.13 613.341ZM140.79 593.419L135.697 591.598L135.693 591.612L140.79 593.419ZM104.916 490.548L102.226 495.533L102.282 495.568L102.339 495.602L104.916 490.548ZM28.3219 521.302L23.2665 519.364L23.2628 519.375L28.3219 521.302ZM64.1968 624.174L61.4093 629.096L61.4631 629.131L61.5183 629.165L64.1968 624.174ZM122.965 666.446C90.0974 679.644 62.7822 680.382 40.4653 669.834L36.1341 680.38C61.8434 692.527 92.2263 691.086 126.726 677.234L122.965 666.446ZM40.4653 669.834C18.2938 659.36 0.260233 635.856 -13.0372 597.727L-23.0938 601.765C-9.26416 641.422 10.2791 668.157 36.1341 680.38L40.4653 669.834ZM-13.0372 597.727C-27.1798 557.172 -28.1858 525.902 -17.7863 502.949L-27.4436 497.915C-39.7099 524.991 -37.6827 559.93 -23.0938 601.765L-13.0372 597.727ZM-17.7863 502.949C-7.25604 479.705 13.8925 461.226 46.7911 448.017L43.0291 437.229C8.55989 451.069 -15.308 471.129 -27.4436 497.915L-17.7863 502.949ZM46.7911 448.017C79.6897 434.807 106.949 433.85 129.113 443.965L133.318 433.366C107.776 421.708 77.4983 423.389 43.0291 437.229L46.7911 448.017ZM129.113 443.965C151.001 453.956 169.373 478.252 183.515 518.807L193.572 514.769C178.983 472.934 159.136 445.15 133.318 433.366L129.113 443.965ZM183.515 518.807C196.812 556.937 197.587 587.369 187.272 610.889L196.988 615.791C209.017 588.362 207.402 554.426 193.572 514.769L183.515 518.807ZM187.272 610.889C176.889 634.565 155.832 653.249 122.965 666.446L126.726 677.234C161.227 663.381 185.026 643.066 196.988 615.791L187.272 610.889ZM110.234 629.94C128.535 622.592 140.958 611.215 145.887 595.227L135.693 591.612C132.129 603.171 122.928 612.545 106.472 619.153L110.234 629.94ZM145.883 595.241C150.832 579.321 148.594 559.38 140.472 536.09L130.415 540.128C138.184 562.406 139.509 579.338 135.697 591.598L145.883 595.241ZM140.472 536.09C131.694 510.919 120.938 493.381 107.492 485.494L102.339 495.602C112.261 501.42 121.857 515.589 130.415 540.128L140.472 536.09ZM107.605 485.563C94.1815 477.231 77.908 477.533 59.642 484.868L63.4042 495.655C79.8955 489.034 92.5498 489.528 102.226 495.533L107.605 485.563ZM59.642 484.868C41.1758 492.282 28.5253 503.582 23.2665 519.364L33.3774 523.239C37.2012 511.763 46.6849 502.368 63.4042 495.655L59.642 484.868ZM23.2628 519.375C18.1935 534.689 20.9144 555.423 29.6847 580.573L39.7418 576.535C31.1766 551.975 29.6363 534.541 33.381 523.228L23.2628 519.375ZM29.6847 580.573C37.7982 603.839 48.1858 620.481 61.4093 629.096L66.9843 619.25C56.7868 612.607 47.5187 598.837 39.7418 576.535L29.6847 580.573ZM61.5183 629.165C75.2181 637.624 91.7334 637.369 110.234 629.94L106.472 619.153C89.7868 625.852 76.8647 625.349 66.8754 619.181L61.5183 629.165ZM253.369 616.301L248.338 618.319L250.222 623.713L255.248 621.694L253.369 616.301ZM175.841 393.987L173.959 388.593L168.931 390.612L170.812 396.006L175.841 393.987ZM220.252 376.155L223.258 371.383L220.964 369.72L218.371 370.761L220.252 376.155ZM354.779 473.654L351.772 478.426L365.694 488.516L359.805 471.634L354.779 473.654ZM308.433 340.75L306.549 335.355L301.521 337.374L303.402 342.768L308.433 340.75ZM360.564 319.816L365.595 317.797L363.716 312.404L358.685 314.422L360.564 319.816ZM438.092 542.129L439.977 547.524L445.003 545.504L443.124 540.111L438.092 542.129ZM393.363 560.091L390.361 564.868L392.653 566.524L395.242 565.485L393.363 560.091ZM258.954 462.937L261.955 458.16L248.051 448.11L253.925 464.956L258.954 462.937ZM305.181 595.496L307.061 600.889L312.092 598.871L310.207 593.477L305.181 595.496ZM258.395 614.28L180.869 391.968L170.812 396.006L248.338 618.319L258.395 614.28ZM177.721 399.381L222.133 381.549L218.371 370.761L173.959 388.593L177.721 399.381ZM217.246 380.928L351.772 478.426L357.785 468.882L223.258 371.383L217.246 380.928ZM359.805 471.634L313.459 338.73L303.402 342.768L349.753 475.674L359.805 471.634ZM310.312 346.143L362.448 325.21L358.685 314.422L306.549 335.355L310.312 346.143ZM355.538 321.835L433.067 544.149L443.124 540.111L365.595 317.797L355.538 321.835ZM436.213 536.736L391.478 554.696L395.242 565.485L439.977 547.524L436.213 536.736ZM396.359 555.314L261.955 458.16L255.953 467.713L390.361 564.868L396.359 555.314ZM253.925 464.956L300.155 597.516L310.207 593.477L263.982 460.918L253.925 464.956ZM303.302 590.103L251.49 610.907L255.248 621.694L307.061 600.889L303.302 590.103ZM470.847 528.977L465.821 530.996L467.7 536.39L472.731 534.372L470.847 528.977ZM393.324 306.665L391.439 301.27L386.413 303.29L388.292 308.683L393.324 306.665ZM445.136 285.861L450.162 283.841L448.283 278.447L443.252 280.466L445.136 285.861ZM475.229 372.162L470.203 374.182L475.153 388.378L480.241 374.234L475.229 372.162ZM516.58 257.174L514.696 251.78L512.437 252.687L511.569 255.102L516.58 257.174ZM575.794 233.398L580.816 235.428L584.992 223.557L573.915 228.005L575.794 233.398ZM533.436 353.907L528.415 351.877L526.989 355.923L530.214 358.516L533.436 353.907ZM657.829 453.902L659.708 459.296L668.899 455.605L661.047 449.293L657.829 453.902ZM602.475 476.128L599.187 480.682L601.552 482.646L604.354 481.521L602.475 476.128ZM513.656 402.386L516.938 397.83L511.329 393.172L508.674 400.231L513.656 402.386ZM499.187 440.858L494.206 438.704L493.428 440.781L494.156 442.877L499.187 440.858ZM522.66 508.173L524.544 513.567L529.57 511.548L527.691 506.155L522.66 508.173ZM475.878 526.958L398.349 304.645L388.292 308.683L465.821 530.996L475.878 526.958ZM395.203 312.058L447.015 291.254L443.252 280.466L391.439 301.27L395.203 312.058ZM440.105 287.879L470.203 374.182L480.26 370.143L450.162 283.841L440.105 287.879ZM480.241 374.234L521.587 259.245L511.569 255.102L470.223 370.091L480.241 374.234ZM518.46 262.568L577.673 238.791L573.915 228.005L514.696 251.78L518.46 262.568ZM570.772 231.367L528.415 351.877L538.458 355.938L580.816 235.428L570.772 231.367ZM530.214 358.516L654.606 458.511L661.047 449.293L536.654 349.298L530.214 358.516ZM655.945 448.508L600.591 470.733L604.354 481.521L659.708 459.296L655.945 448.508ZM605.757 471.572L516.938 397.83L510.368 406.941L599.187 480.682L605.757 471.572ZM508.674 400.231L494.206 438.704L504.164 443.011L518.632 404.539L508.674 400.231ZM494.156 442.877L517.634 510.193L527.691 506.155L504.213 438.839L494.156 442.877ZM520.78 502.78L468.968 523.584L472.731 534.372L524.544 513.567L520.78 502.78Z" fill="#161C29" fill-opacity="0.1"/>
</g>
<g clip-path="url(#clip2_42_1)">
<path d="M705.19 416.956L700.161 418.979L702.043 424.37L707.071 422.353L705.19 416.956ZM627.662 194.645L625.782 189.249L620.753 191.271L622.634 196.663L627.662 194.645ZM678.832 174.099L682.519 169.912L680.086 167.446L676.951 168.705L678.832 174.099ZM778.128 274.725L774.441 278.912L782.424 287.003L783.472 275.274L778.128 274.725ZM791.147 129.002L789.266 123.608L786.123 124.87L785.803 128.454L791.147 129.002ZM841.995 108.586L847.023 106.567L845.143 101.173L840.114 103.192L841.995 108.586ZM919.523 330.901L921.404 336.292L926.432 334.275L924.551 328.878L919.523 330.901ZM867.709 351.705L862.681 353.722L864.563 359.113L869.591 357.096L867.709 351.705ZM823.168 223.977L828.196 221.957L817.823 223.423L823.168 223.977ZM813.596 330.142L815.477 335.533L818.617 334.274L818.94 330.692L813.596 330.142ZM784.955 341.639L781.273 345.834L783.705 348.292L786.835 347.036L784.955 341.639ZM712.462 268.425L716.141 264.235L707.432 270.448L712.462 268.425ZM757.004 396.152L758.884 401.548L763.912 399.531L762.032 394.135L757.004 396.152ZM710.219 414.939L632.69 192.628L622.634 196.663L700.161 418.979L710.219 414.939ZM629.544 200.037L680.713 179.493L676.951 168.705L625.782 189.249L629.544 200.037ZM675.145 178.286L774.441 278.912L781.815 270.537L682.519 169.912L675.145 178.286ZM783.472 275.274L796.491 129.55L785.803 128.454L772.784 274.175L783.472 275.274ZM793.028 134.396L843.876 113.98L840.114 103.192L789.266 123.608L793.028 134.396ZM836.967 110.605L914.494 332.918L924.551 328.878L847.023 106.567L836.967 110.605ZM917.642 325.504L865.829 346.308L869.591 357.096L921.404 336.292L917.642 325.504ZM872.738 349.682L828.196 221.957L818.139 225.995L862.681 353.722L872.738 349.682ZM817.823 223.423L808.252 329.587L818.94 330.692L828.511 224.529L817.823 223.423ZM811.715 324.745L783.073 336.248L786.835 347.036L815.477 335.533L811.715 324.745ZM788.634 337.449L716.141 264.235L708.78 272.62L781.273 345.834L788.634 337.449ZM707.432 270.448L751.975 398.174L762.032 394.135L717.489 266.408L707.432 270.448ZM755.122 390.761L703.309 411.565L707.071 422.353L758.884 401.548L755.122 390.761ZM963.738 285.597L961.573 290.87L963.738 285.597ZM902.824 110.922L907.653 113.439L902.824 110.922ZM1117.57 223.831L1122.43 226.282L1117.57 223.831ZM1066.23 203.91L1061.14 202.089L1061.13 202.103L1066.23 203.91ZM1030.35 101.039L1027.67 106.024L1027.72 106.059L1027.78 106.092L1030.35 101.039ZM953.761 131.792L948.705 129.855L948.702 129.866L953.761 131.792ZM989.636 234.664L986.848 239.587L986.902 239.622L986.957 239.656L989.636 234.664ZM1048.4 276.937C1015.54 290.135 988.221 290.873 965.904 280.325L961.573 290.87C987.282 303.018 1017.67 301.577 1052.17 287.725L1048.4 276.937ZM965.904 280.325C943.733 269.85 925.699 246.347 912.402 208.218L902.345 212.256C916.175 251.913 935.718 278.648 961.573 290.87L965.904 280.325ZM912.402 208.218C898.259 167.663 897.253 136.393 907.653 113.439L897.995 108.406C885.729 135.481 887.756 170.421 902.345 212.256L912.402 208.218ZM907.653 113.439C918.183 90.1959 939.331 71.7171 972.23 58.5075L968.468 47.7195C933.999 61.5598 910.131 81.6201 897.995 108.406L907.653 113.439ZM972.23 58.5075C1005.13 45.2979 1032.39 44.3406 1054.55 54.4561L1058.76 43.8572C1033.21 32.1992 1002.94 33.8793 968.468 47.7195L972.23 58.5075ZM1054.55 54.4561C1076.44 64.4466 1094.81 88.743 1108.95 129.298L1119.01 125.26C1104.42 83.425 1084.57 55.6406 1058.76 43.8572L1054.55 54.4561ZM1108.95 129.298C1122.25 167.427 1123.03 197.86 1112.71 221.38L1122.43 226.282C1134.46 198.853 1132.84 164.917 1119.01 125.26L1108.95 129.298ZM1112.71 221.38C1102.33 245.056 1081.27 263.74 1048.4 276.937L1052.17 287.725C1086.67 273.872 1110.47 253.556 1122.43 226.282L1112.71 221.38ZM1035.67 240.431C1053.97 233.083 1066.4 221.706 1071.33 205.718L1061.13 202.103C1057.57 213.662 1048.37 223.036 1031.91 229.644L1035.67 240.431ZM1071.32 205.732C1076.27 189.812 1074.03 169.87 1065.91 146.581L1055.85 150.619C1063.62 172.897 1064.95 189.828 1061.14 202.089L1071.32 205.732ZM1065.91 146.581C1057.13 121.41 1046.38 103.872 1032.93 95.9849L1027.78 106.092C1037.7 111.911 1047.3 126.08 1055.85 150.619L1065.91 146.581ZM1033.04 96.0533C1019.62 87.7216 1003.35 88.0241 985.081 95.3583L988.843 106.146C1005.33 99.5245 1017.99 100.018 1027.67 106.024L1033.04 96.0533ZM985.081 95.3583C966.615 102.773 953.964 114.072 948.705 129.855L958.816 133.73C962.64 122.253 972.124 112.859 988.843 106.146L985.081 95.3583ZM948.702 129.866C943.633 145.18 946.353 165.914 955.124 191.064L965.181 187.026C956.616 162.466 955.075 145.032 958.82 133.719L948.702 129.866ZM955.124 191.064C963.237 214.33 973.625 230.972 986.848 239.587L992.423 229.741C982.226 223.098 972.958 209.327 965.181 187.026L955.124 191.064ZM986.957 239.656C1000.66 248.114 1017.17 247.86 1035.67 240.431L1031.91 229.644C1015.23 236.343 1002.3 235.84 992.314 229.672L986.957 239.656ZM1178.81 226.791L1173.78 228.809L1175.66 234.204L1180.69 232.185L1178.81 226.791ZM1101.28 4.4778L1099.4 -0.916289L1094.37 1.10317L1096.25 6.49652L1101.28 4.4778ZM1145.69 -13.3542L1148.7 -18.1266L1146.4 -19.7894L1143.81 -18.7482L1145.69 -13.3542ZM1280.22 84.1449L1277.21 88.9172L1291.13 99.0069L1285.24 82.1248L1280.22 84.1449ZM1233.87 -48.7591L1231.99 -54.1541L1226.96 -52.135L1228.84 -46.7411L1233.87 -48.7591ZM1286 -69.6938L1291.03 -71.7118L1289.15 -77.1053L1284.12 -75.0873L1286 -69.6938ZM1363.53 152.62L1365.42 158.015L1370.44 155.995L1368.56 150.601L1363.53 152.62ZM1318.8 170.582L1315.8 175.358L1318.09 177.015L1320.68 175.975L1318.8 170.582ZM1184.39 73.4274L1187.39 68.6511L1173.49 58.6011L1179.36 75.4467L1184.39 73.4274ZM1230.62 205.987L1232.5 211.38L1237.53 209.362L1235.65 203.967L1230.62 205.987ZM1183.83 224.771L1106.31 2.45847L1096.25 6.49652L1173.78 228.809L1183.83 224.771ZM1103.16 9.87167L1147.57 -7.96021L1143.81 -18.7482L1099.4 -0.916289L1103.16 9.87167ZM1142.68 -8.58178L1277.21 88.9172L1283.22 79.3725L1148.7 -18.1266L1142.68 -8.58178ZM1285.24 82.1248L1238.9 -50.7792L1228.84 -46.7411L1275.19 86.1643L1285.24 82.1248ZM1235.75 -43.3662L1287.89 -64.2989L1284.12 -75.0873L1231.99 -54.1541L1235.75 -43.3662ZM1280.98 -67.6738L1358.51 154.639L1368.56 150.601L1291.03 -71.7118L1280.98 -67.6738ZM1361.65 147.226L1316.92 165.187L1320.68 175.975L1365.42 158.015L1361.65 147.226ZM1321.8 165.804L1187.39 68.6511L1181.39 78.2042L1315.8 175.358L1321.8 165.804ZM1179.36 75.4467L1225.59 208.007L1235.65 203.967L1189.42 71.4085L1179.36 75.4467ZM1228.74 200.593L1176.93 221.398L1180.69 232.185L1232.5 211.38L1228.74 200.593ZM1396.29 139.468L1391.26 141.487L1393.14 146.881L1398.17 144.863L1396.29 139.468ZM1318.76 -82.8445L1316.88 -88.2394L1311.85 -86.2194L1313.73 -80.8259L1318.76 -82.8445ZM1370.58 -103.648L1375.6 -105.668L1373.72 -111.062L1368.69 -109.043L1370.58 -103.648ZM1400.67 -17.3478L1395.64 -15.3278L1400.59 -1.13094L1405.68 -15.275L1400.67 -17.3478ZM1442.02 -132.335L1440.14 -137.73L1437.88 -136.822L1437.01 -134.408L1442.02 -132.335ZM1501.23 -156.111L1506.25 -154.081L1510.43 -165.953L1499.35 -161.505L1501.23 -156.111ZM1458.88 -35.6021L1453.85 -37.6324L1452.43 -33.5866L1455.65 -30.9936L1458.88 -35.6021ZM1583.27 64.3931L1585.15 69.7866L1594.34 66.0955L1586.49 59.7837L1583.27 64.3931ZM1527.91 86.6185L1524.63 91.173L1526.99 93.1367L1529.79 92.012L1527.91 86.6185ZM1439.09 12.8764L1442.38 8.32062L1436.77 3.66274L1434.11 10.7221L1439.09 12.8764ZM1424.63 51.3486L1419.64 49.1943L1418.87 51.2713L1419.6 53.3672L1424.63 51.3486ZM1448.1 118.663L1449.98 124.058L1455.01 122.039L1453.13 116.645L1448.1 118.663ZM1401.32 137.449L1323.79 -84.8639L1313.73 -80.8259L1391.26 141.487L1401.32 137.449ZM1320.64 -77.451L1372.45 -98.2555L1368.69 -109.043L1316.88 -88.2394L1320.64 -77.451ZM1365.54 -101.63L1395.64 -15.3278L1405.7 -19.3658L1375.6 -105.668L1365.54 -101.63ZM1405.68 -15.275L1447.03 -130.264L1437.01 -134.408L1395.66 -19.4186L1405.68 -15.275ZM1443.9 -126.941L1503.11 -150.718L1499.35 -161.505L1440.14 -137.73L1443.9 -126.941ZM1496.21 -158.142L1453.85 -37.6324L1463.9 -33.5713L1506.25 -154.081L1496.21 -158.142ZM1455.65 -30.9936L1580.05 69.0017L1586.49 59.7837L1462.09 -40.2116L1455.65 -30.9936ZM1581.38 58.9982L1526.03 81.2237L1529.79 92.012L1585.15 69.7866L1581.38 58.9982ZM1531.2 82.0628L1442.38 8.32062L1435.81 17.4314L1524.63 91.173L1531.2 82.0628ZM1434.11 10.7221L1419.64 49.1943L1429.6 53.5016L1444.07 15.0294L1434.11 10.7221ZM1419.6 53.3672L1443.07 120.683L1453.13 116.645L1429.65 49.3292L1419.6 53.3672ZM1446.22 113.27L1394.41 134.074L1398.17 144.863L1449.98 124.058L1446.22 113.27Z" fill="#161C29" fill-opacity="0.1"/>
</g>
<g clip-path="url(#clip3_42_1)">
<path d="M1127.75 573.543L1122.72 575.565L1124.61 580.957L1129.63 578.94L1127.75 573.543ZM1050.22 351.232L1048.34 345.835L1043.31 347.858L1045.2 353.249L1050.22 351.232ZM1101.39 330.686L1105.08 326.498L1102.65 324.033L1099.51 325.292L1101.39 330.686ZM1200.69 431.311L1197 435.499L1204.99 443.59L1206.03 431.861L1200.69 431.311ZM1213.71 285.589L1211.83 280.195L1208.69 281.457L1208.37 285.041L1213.71 285.589ZM1264.56 265.172L1269.59 263.153L1267.7 257.76L1262.68 259.779L1264.56 265.172ZM1342.08 487.487L1343.97 492.878L1348.99 490.861L1347.11 485.465L1342.08 487.487ZM1290.27 508.291L1285.24 510.309L1287.13 515.7L1292.15 513.683L1290.27 508.291ZM1245.73 380.563L1250.76 378.544L1240.39 380.01L1245.73 380.563ZM1236.16 486.729L1238.04 492.12L1241.18 490.861L1241.5 487.278L1236.16 486.729ZM1207.52 498.226L1203.84 502.421L1206.27 504.879L1209.4 503.623L1207.52 498.226ZM1135.02 425.012L1138.7 420.822L1129.99 427.034L1135.02 425.012ZM1179.57 552.738L1181.45 558.135L1186.47 556.118L1184.59 550.721L1179.57 552.738ZM1132.78 571.526L1055.25 349.215L1045.2 353.249L1122.72 575.565L1132.78 571.526ZM1052.11 356.623L1103.28 336.08L1099.51 325.292L1048.34 345.835L1052.11 356.623ZM1097.71 334.873L1197 435.499L1204.38 427.123L1105.08 326.498L1097.71 334.873ZM1206.03 431.861L1219.05 286.137L1208.37 285.041L1195.35 430.762L1206.03 431.861ZM1215.59 290.983L1266.44 270.566L1262.68 259.779L1211.83 280.195L1215.59 290.983ZM1259.53 267.192L1337.06 489.504L1347.11 485.465L1269.59 263.153L1259.53 267.192ZM1340.2 482.09L1288.39 502.895L1292.15 513.683L1343.97 492.878L1340.2 482.09ZM1295.3 506.269L1250.76 378.544L1240.7 382.582L1285.24 510.309L1295.3 506.269ZM1240.39 380.01L1230.81 486.174L1241.5 487.278L1251.07 381.116L1240.39 380.01ZM1234.28 481.332L1205.64 492.835L1209.4 503.623L1238.04 492.12L1234.28 481.332ZM1211.2 494.036L1138.7 420.822L1131.34 429.207L1203.84 502.421L1211.2 494.036ZM1129.99 427.034L1174.54 554.761L1184.59 550.721L1140.05 422.995L1129.99 427.034ZM1177.68 547.347L1125.87 568.152L1129.63 578.94L1181.45 558.135L1177.68 547.347ZM1386.3 442.184L1384.14 447.457L1386.3 442.184ZM1325.39 267.509L1330.22 270.026L1325.39 267.509ZM1540.13 380.418L1544.99 382.869L1540.13 380.418ZM1488.79 360.497L1483.7 358.676L1483.69 358.69L1488.79 360.497ZM1452.92 257.626L1450.23 262.611L1450.28 262.645L1450.34 262.679L1452.92 257.626ZM1376.32 288.379L1371.27 286.442L1371.26 286.453L1376.32 288.379ZM1412.2 391.251L1409.41 396.173L1409.46 396.209L1409.52 396.242L1412.2 391.251ZM1470.97 433.523C1438.1 446.721 1410.78 447.46 1388.47 436.911L1384.14 447.457C1409.84 459.605 1440.23 458.163 1474.73 444.311L1470.97 433.523ZM1388.47 436.911C1366.3 426.437 1348.26 402.934 1334.96 364.804L1324.91 368.842C1338.74 408.5 1358.28 435.235 1384.14 447.457L1388.47 436.911ZM1334.96 364.804C1320.82 324.249 1319.82 292.98 1330.22 270.026L1320.56 264.993C1308.29 292.068 1310.32 327.008 1324.91 368.842L1334.96 364.804ZM1330.22 270.026C1340.75 246.783 1361.89 228.304 1394.79 215.094L1391.03 204.306C1356.56 218.146 1332.69 238.207 1320.56 264.993L1330.22 270.026ZM1394.79 215.094C1427.69 201.885 1454.95 200.927 1477.11 211.043L1481.32 200.444C1455.78 188.786 1425.5 190.466 1391.03 204.306L1394.79 215.094ZM1477.11 211.043C1499 221.033 1517.37 245.33 1531.52 285.885L1541.57 281.846C1526.98 240.012 1507.14 212.227 1481.32 200.444L1477.11 211.043ZM1531.52 285.885C1544.81 324.014 1545.59 354.447 1535.27 377.967L1544.99 382.869C1557.02 355.439 1555.4 321.504 1541.57 281.846L1531.52 285.885ZM1535.27 377.967C1524.89 401.643 1503.83 420.327 1470.97 433.523L1474.73 444.311C1509.23 430.459 1533.03 410.143 1544.99 382.869L1535.27 377.967ZM1458.24 397.018C1476.54 389.67 1488.96 378.293 1493.89 362.305L1483.69 358.69C1480.13 370.249 1470.93 379.623 1454.47 386.23L1458.24 397.018ZM1493.88 362.318C1498.83 346.398 1496.59 326.457 1488.47 303.167L1478.42 307.205C1486.18 329.484 1487.51 346.415 1483.7 358.676L1493.88 362.318ZM1488.47 303.167C1479.7 277.997 1468.94 260.458 1455.49 252.572L1450.34 262.679C1460.26 268.498 1469.86 282.666 1478.42 307.205L1488.47 303.167ZM1455.61 252.64C1442.18 244.308 1425.91 244.611 1407.64 251.945L1411.41 262.732C1427.9 256.111 1440.55 256.605 1450.23 262.611L1455.61 252.64ZM1407.64 251.945C1389.18 259.36 1376.53 270.659 1371.27 286.442L1381.38 290.316C1385.2 278.84 1394.69 269.445 1411.41 262.732L1407.64 251.945ZM1371.26 286.453C1366.19 301.767 1368.92 322.501 1377.69 347.651L1387.74 343.612C1379.18 319.052 1377.64 301.618 1381.38 290.305L1371.26 286.453ZM1377.69 347.651C1385.8 370.916 1396.19 387.559 1409.41 396.173L1414.99 386.328C1404.79 379.685 1395.52 365.914 1387.74 343.612L1377.69 347.651ZM1409.52 396.242C1423.22 404.701 1439.73 404.446 1458.24 397.018L1454.47 386.23C1437.79 392.93 1424.87 392.426 1414.88 386.259L1409.52 396.242ZM1601.37 383.378L1596.34 385.396L1598.22 390.791L1603.25 388.771L1601.37 383.378ZM1523.84 161.064L1521.96 155.67L1516.93 157.69L1518.81 163.083L1523.84 161.064ZM1568.25 143.232L1571.26 138.46L1568.97 136.797L1566.37 137.838L1568.25 143.232ZM1702.78 240.732L1699.77 245.504L1713.7 255.594L1707.81 238.712L1702.78 240.732ZM1656.43 107.828L1654.55 102.433L1649.52 104.452L1651.4 109.846L1656.43 107.828ZM1708.57 86.8929L1713.6 84.8749L1711.72 79.4814L1706.69 81.4994L1708.57 86.8929ZM1786.09 309.207L1787.98 314.601L1793 312.581L1791.13 307.188L1786.09 309.207ZM1741.36 327.168L1738.36 331.945L1740.65 333.601L1743.24 332.562L1741.36 327.168ZM1606.96 230.014L1609.96 225.238L1596.05 215.188L1601.93 232.033L1606.96 230.014ZM1653.18 362.573L1655.06 367.967L1660.09 365.949L1658.21 360.554L1653.18 362.573ZM1606.4 381.358L1528.87 159.045L1518.81 163.083L1596.34 385.396L1606.4 381.358ZM1525.72 166.458L1570.13 148.626L1566.37 137.838L1521.96 155.67L1525.72 166.458ZM1565.25 148.005L1699.77 245.504L1705.79 235.959L1571.26 138.46L1565.25 148.005ZM1707.81 238.712L1661.46 105.807L1651.4 109.846L1697.75 242.751L1707.81 238.712ZM1658.31 113.22L1710.45 92.2878L1706.69 81.4994L1654.55 102.433L1658.31 113.22ZM1703.54 88.9129L1781.07 311.226L1791.13 307.188L1713.6 84.8749L1703.54 88.9129ZM1784.21 303.813L1739.48 321.774L1743.24 332.562L1787.98 314.601L1784.21 303.813ZM1744.36 322.391L1609.96 225.238L1603.95 234.791L1738.36 331.945L1744.36 322.391ZM1601.93 232.033L1648.16 364.593L1658.21 360.554L1611.98 227.995L1601.93 232.033ZM1651.3 357.18L1599.49 377.984L1603.25 388.771L1655.06 367.967L1651.3 357.18ZM1818.85 296.054L1813.82 298.074L1815.7 303.467L1820.73 301.449L1818.85 296.054ZM1741.32 73.7422L1739.44 68.3473L1734.41 70.3673L1736.29 75.7608L1741.32 73.7422ZM1793.14 52.9382L1798.16 50.9183L1796.28 45.5248L1791.25 47.5433L1793.14 52.9382ZM1823.23 139.239L1818.2 141.259L1823.15 155.456L1828.24 141.312L1823.23 139.239ZM1864.58 24.2517L1862.7 18.8569L1860.44 19.7642L1859.57 22.1792L1864.58 24.2517ZM1923.8 0.475274L1928.82 2.50569L1932.99 -9.36615L1921.92 -4.91811L1923.8 0.475274ZM1881.44 120.985L1876.42 118.954L1874.99 123L1878.22 125.593L1881.44 120.985ZM2005.83 220.98L2007.71 226.373L2016.9 222.682L2009.05 216.37L2005.83 220.98ZM1950.48 243.205L1947.19 247.76L1949.55 249.723L1952.36 248.599L1950.48 243.205ZM1861.66 169.463L1864.94 164.907L1859.33 160.249L1856.68 167.309L1861.66 169.463ZM1847.19 207.935L1842.21 205.781L1841.43 207.858L1842.16 209.954L1847.19 207.935ZM1870.66 275.25L1872.55 280.645L1877.57 278.625L1875.69 273.232L1870.66 275.25ZM1823.88 294.036L1746.35 71.7227L1736.29 75.7608L1813.82 298.074L1823.88 294.036ZM1743.2 79.1357L1795.02 58.3312L1791.25 47.5433L1739.44 68.3473L1743.2 79.1357ZM1788.11 54.9563L1818.2 141.259L1828.26 137.221L1798.16 50.9183L1788.11 54.9563ZM1828.24 141.312L1869.59 26.3228L1859.57 22.1792L1818.22 137.168L1828.24 141.312ZM1866.46 29.6453L1925.67 5.8686L1921.92 -4.91811L1862.7 18.8569L1866.46 29.6453ZM1918.77 -1.55523L1876.42 118.954L1886.46 123.015L1928.82 2.50569L1918.77 -1.55523ZM1878.22 125.593L2002.61 225.588L2009.05 216.37L1884.66 116.375L1878.22 125.593ZM2003.95 215.585L1948.59 237.81L1952.36 248.599L2007.71 226.373L2003.95 215.585ZM1953.76 238.649L1864.94 164.907L1858.37 174.018L1947.19 247.76L1953.76 238.649ZM1856.68 167.309L1842.21 205.781L1852.17 210.088L1866.63 171.616L1856.68 167.309ZM1842.16 209.954L1865.64 277.27L1875.69 273.232L1852.21 205.916L1842.16 209.954ZM1868.78 269.857L1816.97 290.661L1820.73 301.449L1872.55 280.645L1868.78 269.857Z" fill="#161C29" fill-opacity="0.1"/>
</g>
<g clip-path="url(#clip4_42_1)">
<path d="M840.198 1037.73L835.169 1039.75L837.05 1045.15L842.079 1043.13L840.198 1037.73ZM762.67 815.421L760.789 810.024L755.76 812.047L757.642 817.438L762.67 815.421ZM813.839 794.875L817.526 790.688L815.094 788.222L811.958 789.481L813.839 794.875ZM913.136 895.5L909.448 899.688L917.431 907.779L918.48 896.05L913.136 895.5ZM926.155 749.778L924.274 744.384L921.131 745.646L920.81 749.23L926.155 749.778ZM977.003 729.361L982.031 727.343L980.15 721.949L975.121 723.968L977.003 729.361ZM1054.53 951.676L1056.41 957.068L1061.44 955.05L1059.56 949.654L1054.53 951.676ZM1002.72 972.481L997.689 974.498L999.57 979.889L1004.6 977.872L1002.72 972.481ZM958.175 844.752L963.203 842.733L952.831 844.199L958.175 844.752ZM948.603 950.918L950.485 956.309L953.625 955.05L953.948 951.467L948.603 950.918ZM919.962 962.415L916.281 966.61L918.713 969.068L921.842 967.812L919.962 962.415ZM847.469 889.201L851.149 885.011L842.44 891.223L847.469 889.201ZM892.011 1016.93L893.892 1022.32L898.92 1020.31L897.039 1014.91L892.011 1016.93ZM845.226 1035.71L767.698 813.404L757.642 817.438L835.169 1039.75L845.226 1035.71ZM764.551 820.812L815.72 800.269L811.958 789.481L760.789 810.024L764.551 820.812ZM810.152 799.062L909.448 899.688L916.823 891.313L817.526 790.688L810.152 799.062ZM918.48 896.05L931.499 750.326L920.81 749.23L907.791 894.951L918.48 896.05ZM928.036 755.172L978.883 734.755L975.121 723.968L924.274 744.384L928.036 755.172ZM971.974 731.381L1049.5 953.693L1059.56 949.654L982.031 727.343L971.974 731.381ZM1052.65 946.28L1000.84 967.084L1004.6 977.872L1056.41 957.068L1052.65 946.28ZM1007.75 970.458L963.203 842.733L953.147 846.771L997.689 974.498L1007.75 970.458ZM952.831 844.199L943.26 950.363L953.948 951.467L963.519 845.305L952.831 844.199ZM946.723 945.521L918.08 957.024L921.842 967.812L950.485 956.309L946.723 945.521ZM923.642 958.225L851.149 885.011L843.788 893.396L916.281 966.61L923.642 958.225ZM842.44 891.223L886.982 1018.95L897.039 1014.91L852.497 887.184L842.44 891.223ZM890.13 1011.54L838.317 1032.34L842.079 1043.13L893.892 1022.32L890.13 1011.54ZM1098.75 906.373L1096.58 911.646L1098.75 906.373ZM1037.83 731.698L1042.66 734.215L1037.83 731.698ZM1252.58 844.607L1257.43 847.058L1252.58 844.607ZM1201.24 824.686L1196.14 822.865L1196.14 822.879L1201.24 824.686ZM1165.36 721.815L1162.67 726.8L1162.73 726.834L1162.79 726.868L1165.36 721.815ZM1088.77 752.568L1083.71 750.631L1083.71 750.642L1088.77 752.568ZM1124.64 855.44L1121.86 860.363L1121.91 860.398L1121.96 860.432L1124.64 855.44ZM1183.41 897.712C1150.54 910.91 1123.23 911.649 1100.91 901.1L1096.58 911.646C1122.29 923.794 1152.67 922.353 1187.17 908.5L1183.41 897.712ZM1100.91 901.1C1078.74 890.626 1060.71 867.123 1047.41 828.993L1037.35 833.031C1051.18 872.689 1070.73 899.424 1096.58 911.646L1100.91 901.1ZM1047.41 828.993C1033.27 788.438 1032.26 757.169 1042.66 734.215L1033 729.182C1020.74 756.257 1022.76 791.197 1037.35 833.031L1047.41 828.993ZM1042.66 734.215C1053.19 710.972 1074.34 692.493 1107.24 679.283L1103.48 668.495C1069.01 682.336 1045.14 702.396 1033 729.182L1042.66 734.215ZM1107.24 679.283C1140.14 666.074 1167.4 665.116 1189.56 675.232L1193.76 664.633C1168.22 652.975 1137.94 654.655 1103.48 668.495L1107.24 679.283ZM1189.56 675.232C1211.45 685.222 1229.82 709.519 1243.96 750.074L1254.02 746.035C1239.43 704.201 1219.58 676.416 1193.76 664.633L1189.56 675.232ZM1243.96 750.074C1257.26 788.203 1258.03 818.636 1247.72 842.156L1257.43 847.058C1269.46 819.629 1267.85 785.693 1254.02 746.035L1243.96 750.074ZM1247.72 842.156C1237.34 865.832 1216.28 884.516 1183.41 897.712L1187.17 908.5C1221.67 894.648 1245.47 874.332 1257.43 847.058L1247.72 842.156ZM1170.68 861.207C1188.98 853.859 1201.4 842.482 1206.33 826.494L1196.14 822.879C1192.58 834.438 1183.37 843.812 1166.92 850.419L1170.68 861.207ZM1206.33 826.507C1211.28 810.588 1209.04 790.646 1200.92 767.357L1190.86 771.394C1198.63 793.673 1199.96 810.604 1196.14 822.865L1206.33 826.507ZM1200.92 767.357C1192.14 742.186 1181.38 724.647 1167.94 716.761L1162.79 726.868C1172.71 732.687 1182.3 746.855 1190.86 771.394L1200.92 767.357ZM1168.05 716.829C1154.63 708.497 1138.35 708.8 1120.09 716.134L1123.85 726.921C1140.34 720.3 1153 720.794 1162.67 726.8L1168.05 716.829ZM1120.09 716.134C1101.62 723.549 1088.97 734.848 1083.71 750.631L1093.82 754.506C1097.65 743.029 1107.13 733.635 1123.85 726.921L1120.09 716.134ZM1083.71 750.642C1078.64 765.956 1081.36 786.69 1090.13 811.84L1100.19 807.802C1091.62 783.241 1090.08 765.807 1093.83 754.495L1083.71 750.642ZM1090.13 811.84C1098.24 835.106 1108.63 851.748 1121.86 860.363L1127.43 850.517C1117.23 843.874 1107.97 830.103 1100.19 807.802L1090.13 811.84ZM1121.96 860.432C1135.66 868.89 1152.18 868.635 1170.68 861.207L1166.92 850.419C1150.23 857.119 1137.31 856.615 1127.32 850.448L1121.96 860.432ZM1313.82 847.567L1308.78 849.585L1310.67 854.98L1315.69 852.96L1313.82 847.567ZM1236.29 625.254L1234.41 619.86L1229.38 621.879L1231.26 627.272L1236.29 625.254ZM1280.7 607.422L1283.7 602.649L1281.41 600.986L1278.82 602.028L1280.7 607.422ZM1415.23 704.921L1412.22 709.693L1426.14 719.783L1420.25 702.901L1415.23 704.921ZM1368.88 572.017L1367 566.622L1361.97 568.641L1363.85 574.035L1368.88 572.017ZM1421.01 551.082L1426.04 549.064L1424.16 543.671L1419.13 545.689L1421.01 551.082ZM1498.54 773.396L1500.42 778.791L1505.45 776.771L1503.57 771.377L1498.54 773.396ZM1453.81 791.358L1450.81 796.134L1453.1 797.791L1455.69 796.751L1453.81 791.358ZM1319.4 694.203L1322.4 689.427L1308.5 679.377L1314.37 696.222L1319.4 694.203ZM1365.63 826.763L1367.51 832.156L1372.54 830.138L1370.65 824.743L1365.63 826.763ZM1318.84 845.547L1241.32 623.234L1231.26 627.272L1308.78 849.585L1318.84 845.547ZM1238.17 630.648L1282.58 612.816L1278.82 602.028L1234.41 619.86L1238.17 630.648ZM1277.69 612.194L1412.22 709.693L1418.23 700.148L1283.7 602.649L1277.69 612.194ZM1420.25 702.901L1373.91 569.997L1363.85 574.035L1410.2 706.94L1420.25 702.901ZM1370.76 577.41L1422.89 556.477L1419.13 545.689L1367 566.622L1370.76 577.41ZM1415.98 553.102L1493.51 775.415L1503.57 771.377L1426.04 549.064L1415.98 553.102ZM1496.66 768.002L1451.92 785.963L1455.69 796.751L1500.42 778.791L1496.66 768.002ZM1456.81 786.58L1322.4 689.427L1316.4 698.98L1450.81 796.134L1456.81 786.58ZM1314.37 696.222L1360.6 828.783L1370.65 824.743L1324.43 692.184L1314.37 696.222ZM1363.75 821.369L1311.94 842.174L1315.69 852.96L1367.51 832.156L1363.75 821.369ZM1531.29 760.244L1526.27 762.263L1528.15 767.656L1533.18 765.638L1531.29 760.244ZM1453.77 537.931L1451.89 532.536L1446.86 534.556L1448.74 539.95L1453.77 537.931ZM1505.58 517.127L1510.61 515.107L1508.73 509.714L1503.7 511.733L1505.58 517.127ZM1535.68 603.428L1530.65 605.448L1535.6 619.645L1540.69 605.501L1535.68 603.428ZM1577.03 488.441L1575.14 483.046L1572.88 483.953L1572.02 486.368L1577.03 488.441ZM1636.24 464.664L1641.26 466.695L1645.44 454.823L1634.36 459.271L1636.24 464.664ZM1593.88 585.174L1588.86 583.143L1587.44 587.189L1590.66 589.782L1593.88 585.174ZM1718.28 685.169L1720.15 690.562L1729.35 686.871L1721.49 680.56L1718.28 685.169ZM1662.92 707.394L1659.63 711.949L1662 713.912L1664.8 712.788L1662.92 707.394ZM1574.1 633.652L1577.38 629.096L1571.78 624.439L1569.12 631.498L1574.1 633.652ZM1559.63 672.124L1554.65 669.97L1553.87 672.047L1554.6 674.143L1559.63 672.124ZM1583.11 739.439L1584.99 744.834L1590.02 742.815L1588.14 737.421L1583.11 739.439ZM1536.32 758.225L1458.8 535.912L1448.74 539.95L1526.27 762.263L1536.32 758.225ZM1455.65 543.325L1507.46 522.52L1503.7 511.733L1451.89 532.536L1455.65 543.325ZM1500.55 519.145L1530.65 605.448L1540.71 601.41L1510.61 515.107L1500.55 519.145ZM1540.69 605.501L1582.03 490.512L1572.02 486.368L1530.67 601.357L1540.69 605.501ZM1578.91 493.834L1638.12 470.058L1634.36 459.271L1575.14 483.046L1578.91 493.834ZM1631.22 462.634L1588.86 583.143L1598.9 587.205L1641.26 466.695L1631.22 462.634ZM1590.66 589.782L1715.05 689.778L1721.49 680.56L1597.1 580.564L1590.66 589.782ZM1716.39 679.774L1661.04 701.999L1664.8 712.788L1720.15 690.562L1716.39 679.774ZM1666.2 702.839L1577.38 629.096L1570.81 638.207L1659.63 711.949L1666.2 702.839ZM1569.12 631.498L1554.65 669.97L1564.61 674.277L1579.08 635.805L1569.12 631.498ZM1554.6 674.143L1578.08 741.459L1588.14 737.421L1564.66 670.105L1554.6 674.143ZM1581.23 734.046L1529.41 754.85L1533.18 765.638L1584.99 744.834L1581.23 734.046Z" fill="#161C29" fill-opacity="0.1"/>
</g>
<g clip-path="url(#clip5_42_1)">
<path d="M238.025 949.24L232.996 951.263L234.878 956.654L239.906 954.637L238.025 949.24ZM160.497 726.93L158.617 721.533L153.587 723.556L155.469 728.947L160.497 726.93ZM211.667 706.383L215.354 702.196L212.921 699.73L209.786 700.99L211.667 706.383ZM310.963 807.009L307.276 811.196L315.259 819.288L316.307 807.558L310.963 807.009ZM323.982 661.287L322.101 655.893L318.958 657.155L318.638 660.738L323.982 661.287ZM374.83 640.87L379.858 638.851L377.977 633.457L372.949 635.476L374.83 640.87ZM452.357 863.185L454.239 868.576L459.267 866.559L457.386 861.162L452.357 863.185ZM400.544 883.989L395.516 886.006L397.398 891.397L402.426 889.38L400.544 883.989ZM356.002 756.261L361.031 754.241L350.658 755.708L356.002 756.261ZM346.431 862.426L348.312 867.817L351.452 866.558L351.775 862.976L346.431 862.426ZM317.79 873.923L314.108 878.118L316.54 880.576L319.67 879.32L317.79 873.923ZM245.297 800.709L248.976 796.519L240.267 802.732L245.297 800.709ZM289.838 928.436L291.719 933.833L296.747 931.816L294.867 926.419L289.838 928.436ZM243.053 947.223L165.525 724.913L155.469 728.947L232.996 951.263L243.053 947.223ZM162.379 732.321L213.548 711.777L209.786 700.99L158.617 721.533L162.379 732.321ZM207.98 710.57L307.276 811.196L314.65 802.821L215.354 702.196L207.98 710.57ZM316.307 807.558L329.326 661.834L318.638 660.738L305.619 806.459L316.307 807.558ZM325.863 666.68L376.711 646.264L372.949 635.476L322.101 655.893L325.863 666.68ZM369.802 642.889L447.329 865.202L457.386 861.162L379.858 638.851L369.802 642.889ZM450.477 857.788L398.664 878.592L402.426 889.38L454.239 868.576L450.477 857.788ZM405.573 881.966L361.031 754.241L350.974 758.279L395.516 886.006L405.573 881.966ZM350.658 755.708L341.087 861.871L351.775 862.976L361.346 756.814L350.658 755.708ZM344.55 857.029L315.908 868.532L319.67 879.32L348.312 867.817L344.55 857.029ZM321.469 869.734L248.976 796.519L241.615 804.904L314.108 878.118L321.469 869.734ZM240.267 802.732L284.81 930.459L294.867 926.419L250.324 798.692L240.267 802.732ZM287.957 923.045L236.144 943.849L239.906 954.637L291.719 933.833L287.957 923.045ZM496.573 817.882L494.408 823.155L496.573 817.882ZM435.659 643.207L440.488 645.724L435.659 643.207ZM650.404 756.116L655.262 758.566L650.404 756.116ZM599.064 736.194L593.971 734.373L593.967 734.387L599.064 736.194ZM563.189 633.323L560.5 638.308L560.556 638.343L560.613 638.377L563.189 633.323ZM486.596 664.077L481.54 662.139L481.537 662.15L486.596 664.077ZM522.471 766.948L519.683 771.871L519.737 771.906L519.792 771.94L522.471 766.948ZM581.238 809.221C548.371 822.419 521.056 823.157 498.739 812.609L494.408 823.155C520.117 835.302 550.5 833.861 585 820.009L581.238 809.221ZM498.739 812.609C476.568 802.134 458.534 778.631 445.237 740.502L435.18 744.54C449.01 784.197 468.553 810.932 494.408 823.155L498.739 812.609ZM445.237 740.502C431.094 699.947 430.088 668.677 440.488 645.724L430.83 640.69C418.564 667.766 420.591 702.705 435.18 744.54L445.237 740.502ZM440.488 645.724C451.018 622.48 472.166 604.001 505.065 590.792L501.303 580.004C466.834 593.844 442.966 613.904 430.83 640.69L440.488 645.724ZM505.065 590.792C537.964 577.582 565.222 576.625 587.386 586.74L591.592 576.141C566.05 564.483 535.772 566.163 501.303 580.004L505.065 590.792ZM587.386 586.74C609.275 596.731 627.647 621.027 641.789 661.582L651.846 657.544C637.257 615.709 617.41 587.925 591.592 576.141L587.386 586.74ZM641.789 661.582C655.086 699.711 655.861 730.144 645.546 753.664L655.262 758.566C667.291 731.137 665.675 697.201 651.846 657.544L641.789 661.582ZM645.546 753.664C635.163 777.34 614.106 796.024 581.238 809.221L585 820.009C619.501 806.156 643.3 785.841 655.262 758.566L645.546 753.664ZM568.508 772.715C586.808 765.367 599.232 753.99 604.161 738.002L593.967 734.387C590.403 745.946 581.202 755.32 564.746 761.928L568.508 772.715ZM604.157 738.016C609.106 722.096 606.867 702.154 598.745 678.865L588.688 682.903C596.457 705.181 597.783 722.113 593.971 734.373L604.157 738.016ZM598.745 678.865C589.968 653.694 579.212 636.156 565.766 628.269L560.613 638.377C570.535 644.195 580.131 658.364 588.688 682.903L598.745 678.865ZM565.879 628.337C552.455 620.006 536.182 620.308 517.916 627.642L521.678 638.43C538.169 631.809 550.824 632.302 560.5 638.308L565.879 628.337ZM517.916 627.642C499.45 635.057 486.799 646.357 481.54 662.139L491.651 666.014C495.475 654.538 504.959 645.143 521.678 638.43L517.916 627.642ZM481.537 662.15C476.467 677.464 479.188 698.198 487.959 723.348L498.016 719.31C489.45 694.75 487.91 677.316 491.655 666.003L481.537 662.15ZM487.959 723.348C496.072 746.614 506.46 763.256 519.683 771.871L525.258 762.025C515.061 755.382 505.793 741.612 498.016 719.31L487.959 723.348ZM519.792 771.94C533.492 780.399 550.007 780.144 568.508 772.715L564.746 761.928C548.061 768.627 535.139 768.124 525.149 761.956L519.792 771.94ZM711.643 759.075L706.612 761.093L708.496 766.488L713.522 764.469L711.643 759.075ZM634.115 536.762L632.233 531.368L627.205 533.387L629.086 538.781L634.115 536.762ZM678.525 518.93L681.532 514.158L679.238 512.495L676.645 513.536L678.525 518.93ZM813.053 616.429L810.046 621.201L823.968 631.291L818.079 614.409L813.053 616.429ZM766.707 483.525L764.822 478.13L759.795 480.149L761.676 485.543L766.707 483.525ZM818.838 462.59L823.869 460.572L821.99 455.179L816.958 457.197L818.838 462.59ZM896.366 684.904L898.251 690.299L903.277 688.279L901.398 682.885L896.366 684.904ZM851.637 702.866L848.635 707.643L850.927 709.299L853.516 708.259L851.637 702.866ZM717.228 605.712L720.228 600.935L706.324 590.885L712.199 607.731L717.228 605.712ZM763.455 738.271L765.334 743.664L770.366 741.646L768.481 736.251L763.455 738.271ZM716.669 757.055L639.143 534.743L629.086 538.781L706.612 761.093L716.669 757.055ZM635.995 542.156L680.407 524.324L676.645 513.536L632.233 531.368L635.995 542.156ZM675.52 523.702L810.046 621.201L816.059 611.657L681.532 514.158L675.52 523.702ZM818.079 614.409L771.733 481.505L761.676 485.543L808.027 618.448L818.079 614.409ZM768.586 488.918L820.722 467.985L816.958 457.197L764.822 478.13L768.586 488.918ZM813.812 464.61L891.34 686.923L901.398 682.885L823.869 460.572L813.812 464.61ZM894.487 679.51L849.752 697.471L853.516 708.259L898.251 690.299L894.487 679.51ZM854.633 698.089L720.228 600.935L714.227 610.488L848.635 707.643L854.633 698.089ZM712.199 607.731L758.429 740.291L768.481 736.251L722.256 603.693L712.199 607.731ZM761.576 732.877L709.764 753.682L713.522 764.469L765.334 743.664L761.576 732.877ZM929.121 671.752L924.095 673.771L925.974 679.165L931.005 677.147L929.121 671.752ZM851.597 449.44L849.713 444.045L844.687 446.065L846.566 451.458L851.597 449.44ZM903.41 428.636L908.436 426.616L906.557 421.222L901.525 423.241L903.41 428.636ZM933.503 514.936L928.477 516.956L933.426 531.153L938.515 517.009L933.503 514.936ZM974.854 399.949L972.97 394.554L970.71 395.462L969.843 397.877L974.854 399.949ZM1034.07 376.173L1039.09 378.203L1043.27 366.331L1032.19 370.779L1034.07 376.173ZM991.71 496.682L986.689 494.652L985.263 498.698L988.487 501.291L991.71 496.682ZM1116.1 596.677L1117.98 602.071L1127.17 598.38L1119.32 592.068L1116.1 596.677ZM1060.75 618.903L1057.46 623.457L1059.83 625.421L1062.63 624.296L1060.75 618.903ZM971.929 545.161L975.212 540.605L969.602 535.947L966.948 543.006L971.929 545.161ZM957.461 583.633L952.479 581.478L951.702 583.556L952.43 585.651L957.461 583.633ZM980.934 650.947L982.818 656.342L987.844 654.323L985.965 648.929L980.934 650.947ZM934.152 669.733L856.623 447.42L846.566 451.458L924.095 673.771L934.152 669.733ZM853.477 454.833L905.289 434.029L901.525 423.241L849.713 444.045L853.477 454.833ZM898.379 430.654L928.477 516.956L938.534 512.918L908.436 426.616L898.379 430.654ZM938.515 517.009L979.861 402.02L969.843 397.877L928.497 512.866L938.515 517.009ZM976.733 405.343L1035.95 381.566L1032.19 370.779L972.97 394.554L976.733 405.343ZM1029.05 374.142L986.689 494.652L996.732 498.713L1039.09 378.203L1029.05 374.142ZM988.487 501.291L1112.88 601.286L1119.32 592.068L994.928 492.073L988.487 501.291ZM1114.22 591.282L1058.86 613.508L1062.63 624.296L1117.98 602.071L1114.22 591.282ZM1064.03 614.347L975.212 540.605L968.642 549.716L1057.46 623.457L1064.03 614.347ZM966.948 543.006L952.479 581.478L962.438 585.786L976.906 547.314L966.948 543.006ZM952.43 585.651L975.908 652.967L985.965 648.929L962.487 581.613L952.43 585.651ZM979.054 645.554L927.242 666.358L931.005 677.147L982.818 656.342L979.054 645.554Z" fill="#161C29" fill-opacity="0.1"/>
</g>
</g>
</g>
</g>
<defs>
<clipPath id="clip0_42_1">
<rect width="922.078" height="786.016" fill="white" transform="matrix(0.965829 0.25918 -0.227267 0.973833 36.2601 -418.869)"/>
</clipPath>
<clipPath id="clip1_42_1">
<rect width="922.078" height="786.016" fill="white" transform="matrix(0.965829 0.25918 -0.227267 0.973833 -173.652 14.68)"/>
</clipPath>
<clipPath id="clip2_42_1">
<rect width="922.078" height="786.016" fill="white" transform="matrix(0.965829 0.25918 -0.227267 0.973833 751.787 -374.829)"/>
</clipPath>
<clipPath id="clip3_42_1">
<rect width="922.078" height="786.016" fill="white" transform="matrix(0.965829 0.25918 -0.227267 0.973833 1174.35 -218.243)"/>
</clipPath>
<clipPath id="clip4_42_1">
<rect width="922.078" height="786.016" fill="white" transform="matrix(0.965829 0.25918 -0.227267 0.973833 886.795 245.946)"/>
</clipPath>
<clipPath id="clip5_42_1">
<rect width="922.078" height="786.016" fill="white" transform="matrix(0.965829 0.25918 -0.227267 0.973833 284.622 157.455)"/>
</clipPath>
</defs>
</svg>
