<svg width="100" height="19" viewBox="0 0 100 19" fill="none" xmlns="http://www.w3.org/2000/svg">
<path d="M3.49926 9.16249C3.49926 8.29955 2.84851 7.59999 2.04577 7.59999C1.24303 7.59999 0.592285 8.29955 0.592285 9.16249V17.4375C0.592285 18.3004 1.24303 19 2.04577 19C2.84851 19 3.49926 18.3004 3.49926 17.4375V9.16249Z" fill="#F5F6FA"/>
<path d="M18.426 8.86247C18.426 7.99953 17.7753 7.29997 16.9725 7.29997C16.1698 7.29997 15.519 7.99953 15.519 8.86247V17.4375C15.519 18.3004 16.1698 19 16.9725 19C17.7753 19 18.426 18.3004 18.426 17.4375V8.86247Z" fill="#F5F6FA"/>
<path d="M3.00411 1.02519C2.39827 0.459048 1.48022 0.52806 0.953573 1.17933C0.426929 1.83061 0.491126 2.81752 1.09696 3.38366L8.48609 10.2887C9.09192 10.8548 10.01 10.7858 10.5366 10.1345C11.0633 9.48327 10.9991 8.49636 10.3932 7.93022L3.00411 1.02519Z" fill="#F5F6FA"/>
<path d="M8.60681 7.93482C8.00097 8.50096 7.93677 9.48787 8.46342 10.1391C8.99006 10.7904 9.90812 10.8594 10.514 10.2933L17.9031 3.38827C18.5089 2.82213 18.5731 1.83522 18.0465 1.18394C17.5198 0.532671 16.6018 0.463659 15.9959 1.0298L8.60681 7.93482Z" fill="#F5F6FA"/>
<path d="M36.5002 17.4875C40.9116 17.4875 44.4877 13.9114 44.4877 9.50004C44.4877 5.08867 40.9116 1.51254 36.5002 1.51254C32.0888 1.51254 28.5127 5.08867 28.5127 9.50004C28.5127 13.9114 32.0888 17.4875 36.5002 17.4875Z" stroke="#F5F6FA" stroke-width="3"/>
<path d="M56.8286 8.14432C56.8286 7.27262 56.1954 6.56596 55.4143 6.56596C54.6332 6.56596 54 7.27262 54 8.14432V16.8063C54 17.678 54.6332 18.3847 55.4143 18.3847C56.1954 18.3847 56.8286 17.678 56.8286 16.8063V8.14432Z" fill="#F5F6FA"/>
<path d="M56.9382 1.03554C56.3487 0.463658 55.4554 0.53337 54.943 1.19125C54.4306 1.84913 54.493 2.84605 55.0825 3.41794L70.0771 17.9645C70.6666 18.5364 71.5599 18.4667 72.0723 17.8088C72.5848 17.1509 72.5223 16.154 71.9328 15.5821L56.9382 1.03554Z" fill="#F5F6FA"/>
<path d="M72.5328 1.57837C72.5328 0.706667 71.8996 1.52588e-05 71.1185 1.52588e-05C70.3374 1.52588e-05 69.7042 0.706667 69.7042 1.57837V10.2404C69.7042 11.1121 70.3374 11.8187 71.1185 11.8187C71.8996 11.8187 72.5328 11.1121 72.5328 10.2404V1.57837Z" fill="#F5F6FA"/>
<path d="M82.0682 15.5821C81.4783 16.154 81.4157 17.1509 81.9286 17.8088C82.4414 18.4667 83.3354 18.5364 83.9254 17.9645L98.9318 3.41791C99.5217 2.84602 99.5842 1.8491 99.0714 1.19121C98.5586 0.533333 97.6646 0.463622 97.0746 1.03551L82.0682 15.5821Z" fill="#F5F6FA"/>
<path d="M84.3364 1.57838C84.3364 0.706684 83.7027 3.05176e-05 82.921 3.05176e-05C82.1393 3.05176e-05 81.5056 0.706684 81.5056 1.57838V10.2404C81.5056 11.1121 82.1393 11.8187 82.921 11.8187C83.7027 11.8187 84.3364 11.1121 84.3364 10.2404V1.57838Z" fill="#F5F6FA"/>
<path d="M94.7131 11.6847C94.0729 11.1843 93.1901 11.3574 92.7414 12.0714C92.2927 12.7853 92.448 13.7697 93.0882 14.27L97.2057 17.488C97.846 17.9884 98.7287 17.8153 99.1774 17.1013C99.6261 16.3874 99.4709 15.4031 98.8306 14.9027L94.7131 11.6847Z" fill="#F5F6FA"/>
</svg>
