<svg width="80" height="80" viewBox="0 0 80 80" fill="none" xmlns="http://www.w3.org/2000/svg">
<rect width="80" height="80" fill="url(#paint0_linear_721_517)"/>
<rect width="80" height="80" rx="40" fill="#F5F6FA"/>
<g clip-path="url(#clip0_721_517)">
<path d="M37.3831 0.0624629C37.2112 0.0780864 36.6644 0.132769 36.1723 0.171827C24.8218 1.19516 14.19 7.31957 7.45631 16.7327C3.70667 21.9666 1.30847 27.9035 0.402309 34.1919C0.0820274 36.387 0.0429688 37.0354 0.0429688 40.0117C0.0429688 42.988 0.0820274 43.6363 0.402309 45.8314C2.57397 60.8378 13.2526 73.4459 27.7356 78.1173C30.3291 78.9532 33.0632 79.5235 36.1723 79.8672C37.3831 80 42.6169 80 43.8278 79.8672C49.1944 79.2735 53.7408 77.9455 58.2248 75.6566C58.9122 75.3051 59.045 75.2114 58.9513 75.1333C58.8888 75.0864 55.9594 71.1571 52.4441 66.4075L46.0541 57.7756L38.0471 45.9252C33.6413 39.4102 30.0166 34.0826 29.9854 34.0826C29.9541 34.0748 29.9229 39.3399 29.9072 45.7689C29.8838 57.0257 29.876 57.4787 29.7354 57.7443C29.5323 58.1271 29.376 58.2833 29.0479 58.4552C28.798 58.5802 28.5792 58.6036 27.3997 58.6036H26.0482L25.6889 58.3771C25.4545 58.2287 25.2827 58.0334 25.1655 57.8068L25.0015 57.4553L25.0171 41.7928L25.0405 26.1224L25.2827 25.8178C25.4077 25.6537 25.6733 25.4428 25.8608 25.3412C26.181 25.185 26.306 25.1694 27.6575 25.1694C29.2511 25.1694 29.5167 25.2319 29.9307 25.685C30.0479 25.8099 34.3834 32.3406 39.5704 40.207C44.7574 48.0734 51.8504 58.8145 55.3344 64.0875L61.6619 73.6725L61.9822 73.4615C64.8179 71.618 67.8176 68.9932 70.1924 66.2591C75.2466 60.455 78.5041 53.3776 79.5977 45.8314C79.918 43.6363 79.957 42.988 79.957 40.0117C79.957 37.0354 79.918 36.387 79.5977 34.1919C77.426 19.1856 66.7474 6.57745 52.2644 1.90603C49.71 1.07799 46.9915 0.507732 43.9449 0.164015C43.195 0.0858981 38.0314 -3.09832e-05 37.3831 0.0624629ZM53.7409 24.232C54.1158 24.4195 54.4205 24.7788 54.5298 25.1538C54.5923 25.3569 54.608 29.7002 54.5923 39.4883L54.5689 53.5338L52.0926 49.7373L49.6084 45.9408V35.7309C49.6084 29.1299 49.6397 25.4194 49.6866 25.2397C49.8115 24.8022 50.085 24.4585 50.4599 24.2554C50.7802 24.0914 50.8974 24.0757 52.1238 24.0757C53.28 24.0757 53.4831 24.0914 53.7409 24.232Z" fill="url(#paint1_linear_721_517)"/>
<path d="M61.2713 73.8443C60.9979 74.0162 60.912 74.1334 61.1541 74.0006C61.326 73.899 61.6072 73.6881 61.5603 73.6803C61.5369 73.6803 61.4041 73.7584 61.2713 73.8443ZM60.7323 74.1959C60.5917 74.3052 60.5917 74.313 60.7635 74.2271C60.8573 74.1802 60.9354 74.1256 60.9354 74.1099C60.9354 74.0474 60.8963 74.0631 60.7323 74.1959ZM60.3417 74.4302C60.2011 74.5396 60.2011 74.5474 60.373 74.4615C60.4667 74.4146 60.5448 74.3599 60.5448 74.3443C60.5448 74.2818 60.5058 74.2974 60.3417 74.4302ZM59.9511 74.6646C59.8105 74.7739 59.8105 74.7818 59.9824 74.6958C60.0761 74.649 60.1542 74.5943 60.1542 74.5786C60.1542 74.5162 60.1152 74.5318 59.9511 74.6646ZM59.3574 74.977C59.0606 75.1333 59.0762 75.1958 59.3731 75.0474C59.5059 74.977 59.6074 74.9067 59.6074 74.8911C59.6074 74.8364 59.5996 74.8442 59.3574 74.977Z" fill="url(#paint2_linear_721_517)"/>
</g>
<defs>
<linearGradient id="paint0_linear_721_517" x1="40" y1="0" x2="40" y2="80" gradientUnits="userSpaceOnUse">
<stop stop-color="#592FB4"/>
<stop offset="1" stop-color="#230086"/>
</linearGradient>
<linearGradient id="paint1_linear_721_517" x1="40" y1="0.0409546" x2="40" y2="79.9668" gradientUnits="userSpaceOnUse">
<stop stop-color="#592FB4"/>
<stop offset="1" stop-color="#230086"/>
</linearGradient>
<linearGradient id="paint2_linear_721_517" x1="60.354" y1="73.6803" x2="60.354" y2="75.1317" gradientUnits="userSpaceOnUse">
<stop stop-color="#592FB4"/>
<stop offset="1" stop-color="#230086"/>
</linearGradient>
<clipPath id="clip0_721_517">
<rect width="80" height="80" fill="white"/>
</clipPath>
</defs>
</svg>
