<svg width="80" height="80" viewBox="0 0 80 80" fill="none" xmlns="http://www.w3.org/2000/svg">
<rect width="80" height="80" fill="url(#paint0_linear_721_515)"/>
<g clip-path="url(#clip0_721_515)">
<path d="M36.9194 5.88865C38.6475 4.89946 40.8985 4.89499 42.6251 5.88865C51.3118 10.7971 60.0013 15.6978 68.6865 20.6092C70.32 21.5294 71.4127 23.3474 71.3961 25.2297V54.7608C71.4083 56.7211 70.2076 58.5825 68.4842 59.4818C59.826 64.3632 51.1723 69.2506 42.5157 74.1319C40.7518 75.1405 38.4557 75.0628 36.7469 73.9716C34.1511 72.4668 31.551 70.9695 28.955 69.4663C28.4246 69.15 27.8266 68.8983 27.452 68.384C27.7831 67.9377 28.3752 67.8821 28.8562 67.6872C29.9397 67.3427 30.9349 66.7896 31.9303 66.253C32.182 66.0807 32.4893 66.1467 32.7305 66.3009C34.9502 67.5735 37.1502 68.8832 39.3773 70.1437C39.8524 70.418 40.3335 70.0538 40.7396 69.8274C49.2359 65.0255 57.7426 60.2417 66.2375 55.4382C66.5522 55.2868 66.7262 54.9527 66.7006 54.6079C66.7066 44.8662 66.7021 35.1228 66.7036 25.3812C66.7396 24.99 66.5132 24.6303 66.1595 24.4702C57.5314 19.6111 48.9077 14.7446 40.2811 9.88436C40.1317 9.7816 39.9546 9.72647 39.7732 9.7262C39.5918 9.72594 39.4146 9.78055 39.2649 9.88287C30.6382 14.7446 22.0161 19.6156 13.3894 24.4744C13.037 24.6347 12.8004 24.9885 12.8424 25.3812C12.8438 35.1228 12.8424 44.8662 12.8424 54.6094C12.8274 54.7776 12.8643 54.9464 12.9482 55.093C13.0321 55.2396 13.1589 55.3569 13.3115 55.4293C15.6136 56.7347 17.9186 58.031 20.2221 59.3319C21.5199 60.0304 23.1132 60.4455 24.543 59.9103C25.8048 59.4578 26.6892 58.1702 26.6651 56.8305C26.677 47.1457 26.6592 37.4594 26.6741 27.7761C26.6425 27.3461 27.0504 26.9909 27.4684 27.0314C28.5745 27.0239 29.6821 27.0165 30.7882 27.0344C31.2499 27.0239 31.5676 27.4869 31.5105 27.92C31.506 37.6662 31.5224 47.4125 31.5031 57.1587C31.506 59.7561 30.4389 62.5824 28.0363 63.8534C25.0765 65.3867 21.4181 65.0615 18.494 63.5912C15.9626 62.3278 13.5468 60.8367 11.0603 59.4831C9.33243 58.5887 8.13771 56.7198 8.14987 54.7611V25.2297C8.13175 23.3085 9.26789 21.4574 10.9524 20.5507C19.609 15.6653 28.2642 10.7762 36.9194 5.88865Z" fill="#F5F6FA"/>
<path d="M44.4715 26.345C48.247 26.102 52.2889 26.2011 55.6864 28.061C58.3168 29.4863 59.7751 32.4777 59.8216 35.4001C59.7481 35.7943 59.336 36.0117 58.9597 35.9847C57.8643 35.9832 56.7686 35.9996 55.6732 35.9772C55.2085 35.9951 54.9384 35.5667 54.8801 35.1559C54.5654 33.7576 53.8028 32.3727 52.4867 31.6983C50.4664 30.6868 48.1239 30.7377 45.9209 30.7588C44.3126 30.8442 42.5832 30.9834 41.2207 31.9292C40.1747 32.6455 39.8569 34.0917 40.2303 35.2564C40.5822 36.0927 41.5476 36.3625 42.3375 36.6112C46.8875 37.8012 51.709 37.6828 56.1721 39.2489C58.0199 39.8873 59.8275 41.1284 60.46 43.0631C61.2873 45.6561 60.9247 48.7555 59.0799 50.8371C57.5838 52.5501 55.4049 53.4824 53.2316 53.9888C50.3405 54.6335 47.3402 54.6499 44.4042 54.3637C41.6434 54.0489 38.7704 53.3236 36.6392 51.4425C34.8167 49.8601 33.9265 47.3944 34.0149 45.0147C34.036 44.6128 34.4361 44.3326 34.8211 44.3656C35.9243 44.3566 37.0274 44.3537 38.1305 44.3671C38.5711 44.3355 38.8978 44.7163 38.9204 45.1316C39.1239 46.4638 39.6246 47.8621 40.7863 48.652C43.0283 50.0984 45.8414 49.9993 48.4086 50.0398C50.5354 49.9455 52.9228 49.9169 54.6584 48.5112C55.5742 47.7094 55.8455 46.368 55.598 45.214C55.3299 44.2397 54.3107 43.7857 53.4354 43.4888C48.9438 42.068 44.0683 42.5835 39.6201 40.9768C37.8143 40.3386 36.068 39.132 35.3742 37.2767C34.4061 34.651 34.8497 31.4032 36.8879 29.3918C38.8752 27.3911 41.7439 26.6208 44.4715 26.345Z" fill="#F5F6FA"/>
</g>
<defs>
<linearGradient id="paint0_linear_721_515" x1="40" y1="0" x2="40" y2="80" gradientUnits="userSpaceOnUse">
<stop stop-color="#592FB4"/>
<stop offset="1" stop-color="#230086"/>
</linearGradient>
<clipPath id="clip0_721_515">
<rect width="63.56" height="70" fill="white" transform="translate(8 5)"/>
</clipPath>
</defs>
</svg>
