<svg width="80" height="80" viewBox="0 0 80 80" fill="none" xmlns="http://www.w3.org/2000/svg">
<rect width="80" height="80" fill="url(#paint0_linear_721_502)"/>
<g clip-path="url(#clip0_721_502)">
<path d="M74.208 40.0071C74.208 35.3562 68.3836 30.9485 59.4537 28.2152C61.5145 19.1136 60.5986 11.8724 56.563 9.55411C55.6328 9.01031 54.5452 8.75271 53.3574 8.75271V11.944C54.0157 11.944 54.5452 12.0728 54.9888 12.3161C56.9351 13.4323 57.7794 17.6826 57.1211 23.1492C56.9637 24.4944 56.7061 25.9112 56.3913 27.3565C53.5864 26.6696 50.5239 26.1401 47.304 25.7967C45.3721 23.1492 43.3686 20.745 41.3508 18.6414C46.016 14.3052 50.3951 11.9297 53.3717 11.9297V8.7384C49.4363 8.7384 44.2845 11.5433 39.0754 16.4089C33.8663 11.5719 28.7145 8.79565 24.779 8.79565V11.9869C27.7414 11.9869 32.1347 14.3482 36.8 18.6557C34.7965 20.7593 32.793 23.1492 30.8897 25.7967C27.6555 26.1401 24.593 26.6696 21.7881 27.3709C21.459 25.9398 21.2157 24.5517 21.044 23.2208C20.3714 17.7541 21.2014 13.5038 23.1333 12.3733C23.5626 12.1157 24.1208 12.0012 24.779 12.0012V8.80996C23.577 8.80996 22.4893 9.06755 21.5448 9.61135C17.5236 11.9297 16.622 19.1565 18.697 28.2295C9.79581 30.9771 4 35.3705 4 40.0071C4 44.6581 9.82443 49.0658 18.7543 51.7991C16.6935 60.9007 17.6094 68.1419 21.645 70.4602C22.5752 71.004 23.6628 71.2616 24.8649 71.2616C28.8003 71.2616 33.9522 68.4567 39.1612 63.5911C44.3703 68.4281 49.5221 71.2043 53.4576 71.2043C54.6597 71.2043 55.7473 70.9467 56.6918 70.4029C60.7131 68.0846 61.6146 60.8577 59.5396 51.7848C68.4122 49.0515 74.208 44.6438 74.208 40.0071ZM55.5755 30.462C55.046 32.308 54.3878 34.2113 53.6436 36.1147C53.0569 34.9698 52.4415 33.825 51.7689 32.6801C51.1106 31.5353 50.4094 30.419 49.7082 29.3314C51.7403 29.6319 53.7008 30.004 55.5755 30.462ZM49.0213 45.7028C47.905 47.6347 46.7602 49.4665 45.5724 51.1694C43.4401 51.3555 41.2792 51.4557 39.104 51.4557C36.9431 51.4557 34.7822 51.3555 32.6642 51.1838C31.4764 49.4808 30.3173 47.6633 29.201 45.7457C28.1134 43.871 27.126 41.9677 26.2244 40.0501C27.1117 38.1325 28.1134 36.2148 29.1867 34.3401C30.303 32.4082 31.4478 30.5764 32.6356 28.8735C34.7679 28.6874 36.9288 28.5873 39.104 28.5873C41.2649 28.5873 43.4258 28.6874 45.5438 28.8592C46.7316 30.5621 47.8907 32.3796 49.007 34.2972C50.0946 36.1719 51.082 38.0752 51.9836 39.9928C51.082 41.9105 50.0946 43.8281 49.0213 45.7028ZM53.6436 43.8424C54.4164 45.76 55.0747 47.6777 55.6185 49.538C53.7438 49.996 51.7689 50.3824 49.7225 50.6829C50.4237 49.581 51.1249 48.4504 51.7832 47.2913C52.4415 46.1464 53.0569 44.9872 53.6436 43.8424ZM39.1326 59.1119C37.8017 57.738 36.4708 56.2068 35.1543 54.5324C36.4422 54.5897 37.7588 54.6326 39.0897 54.6326C40.4349 54.6326 41.7658 54.604 43.068 54.5324C41.7801 56.2068 40.4492 57.738 39.1326 59.1119ZM28.4855 50.6829C26.4534 50.3824 24.4928 50.0103 22.6181 49.5523C23.1476 47.7063 23.8059 45.803 24.5501 43.8996C25.1368 45.0445 25.7522 46.1893 26.4248 47.3342C27.0974 48.479 27.7843 49.5953 28.4855 50.6829ZM39.0611 20.9024C40.392 22.2763 41.7228 23.8075 43.0394 25.4818C41.7515 25.4246 40.4349 25.3817 39.104 25.3817C37.7588 25.3817 36.4279 25.4103 35.1256 25.4818C36.4136 23.8075 37.7445 22.2763 39.0611 20.9024ZM28.4712 29.3314C27.77 30.4333 27.0688 31.5639 26.4105 32.723C25.7522 33.8679 25.1368 35.0127 24.5501 36.1576C23.7773 34.24 23.119 32.3223 22.5752 30.462C24.4499 30.0183 26.4248 29.6319 28.4712 29.3314ZM15.5201 47.2483C10.4541 45.0874 7.17696 42.2539 7.17696 40.0071C7.17696 37.7604 10.4541 34.9126 15.5201 32.766C16.7508 32.2365 18.096 31.7642 19.4841 31.3206C20.2998 34.1255 21.3731 37.0448 22.704 40.0358C21.3874 43.0124 20.3284 45.9174 19.527 48.708C18.1103 48.2644 16.7651 47.7778 15.5201 47.2483ZM23.2192 67.6982C21.2729 66.582 20.4286 62.3317 21.0869 56.8651C21.2443 55.5199 21.5019 54.1031 21.8167 52.6578C24.6216 53.3447 27.6841 53.8742 30.904 54.2176C32.8359 56.8651 34.8394 59.2693 36.8572 61.3729C32.192 65.7091 27.8129 68.0846 24.8363 68.0846C24.1923 68.0703 23.6485 67.9415 23.2192 67.6982ZM57.164 56.7935C57.8366 62.2602 57.0066 66.5105 55.0747 67.641C54.6454 67.8986 54.0872 68.0131 53.4289 68.0131C50.4666 68.0131 46.0733 65.6518 41.408 61.3443C43.4115 59.2406 45.415 56.8508 47.3183 54.2033C50.5525 53.8598 53.615 53.3304 56.4199 52.6291C56.749 54.0745 57.0066 55.4626 57.164 56.7935ZM62.6736 47.2483C61.4429 47.7778 60.0977 48.2501 58.7096 48.6937C57.8939 45.8888 56.8206 42.9694 55.4897 39.9785C56.8063 37.0019 57.8652 34.0969 58.6666 31.3063C60.0834 31.7499 61.4286 32.2365 62.6879 32.766C67.7539 34.9269 71.031 37.7604 71.031 40.0071C71.0167 42.2539 67.7396 45.1017 62.6736 47.2483Z" fill="#F5F6FA"/>
<path d="M39.0896 46.5471C42.7016 46.5471 45.6296 43.619 45.6296 40.0071C45.6296 36.3952 42.7016 33.4672 39.0896 33.4672C35.4777 33.4672 32.5497 36.3952 32.5497 40.0071C32.5497 43.619 35.4777 46.5471 39.0896 46.5471Z" fill="#F5F6FA"/>
</g>
<defs>
<linearGradient id="paint0_linear_721_502" x1="40" y1="0" x2="40" y2="80" gradientUnits="userSpaceOnUse">
<stop stop-color="#592FB4"/>
<stop offset="1" stop-color="#230086"/>
</linearGradient>
<clipPath id="clip0_721_502">
<rect width="70.208" height="80" fill="white" transform="translate(4)"/>
</clipPath>
</defs>
</svg>
