<svg width="80" height="80" viewBox="0 0 80 80" fill="none" xmlns="http://www.w3.org/2000/svg">
<rect width="80" height="80" fill="url(#paint0_linear_814_310)"/>
<path d="M5 40V4H75V76H5" fill="url(#paint1_linear_814_310)"/>
<path d="M20.3475 40.126V43.06H29.4475V69.7H35.905V43.06H45.005V40.18C45.005 38.56 45.005 37.246 44.935 37.21C44.935 37.156 39.3875 37.138 32.65 37.138L20.4 37.192V40.144L20.3475 40.126ZM61.245 37.12C63.03 37.552 64.395 38.38 65.62 39.694C66.2675 40.414 67.23 41.674 67.3 41.998C67.3 42.106 64.2725 44.212 62.435 45.382C62.365 45.436 62.085 45.13 61.805 44.662C60.895 43.33 59.9675 42.754 58.515 42.646C56.415 42.502 55.015 43.636 55.015 45.526C55.015 46.102 55.12 46.426 55.33 46.894C55.8025 47.884 56.6775 48.478 59.39 49.702C64.395 51.916 66.565 53.374 67.8775 55.462C69.365 57.802 69.6975 61.474 68.7 64.228C67.58 67.234 64.85 69.268 60.9475 69.934C59.7225 70.15 56.9225 70.114 55.61 69.88C52.81 69.34 50.1325 67.9 48.4875 66.046C47.84 65.326 46.5975 63.4 46.6675 63.274L47.3325 62.842L49.9575 61.276L51.935 60.088L52.39 60.718C52.9675 61.654 54.2625 62.914 55.015 63.346C57.29 64.552 60.335 64.39 61.84 62.986C62.4875 62.374 62.7675 61.726 62.7675 60.826C62.7675 59.998 62.645 59.62 62.2425 58.99C61.6825 58.198 60.5625 57.55 57.4125 56.11C53.79 54.526 52.25 53.518 50.815 51.97C49.9925 51.034 49.24 49.576 48.89 48.37C48.6275 47.326 48.54 44.77 48.785 43.744C49.5375 40.144 52.18 37.624 55.96 36.904C57.185 36.652 60.0725 36.76 61.28 37.084L61.245 37.12Z" fill="#F5F6FA"/>
<defs>
<linearGradient id="paint0_linear_814_310" x1="40" y1="0" x2="40" y2="80" gradientUnits="userSpaceOnUse">
<stop stop-color="#592FB4"/>
<stop offset="1" stop-color="#230086"/>
</linearGradient>
<linearGradient id="paint1_linear_814_310" x1="40" y1="4" x2="40" y2="76" gradientUnits="userSpaceOnUse">
<stop stop-color="#592FB4"/>
<stop offset="1" stop-color="#230086"/>
</linearGradient>
</defs>
</svg>
