<svg width="50" height="50" viewBox="0 0 50 50" fill="none" xmlns="http://www.w3.org/2000/svg">
<rect width="50" height="50" rx="25" fill="url(#paint0_linear_750_442)"/>
<path fill-rule="evenodd" clip-rule="evenodd" d="M30.2711 13.412C29.2444 13.3332 27.9781 13.3332 26.367 13.3333H24.1188C22.5077 13.3332 21.2414 13.3332 20.2147 13.412C19.1668 13.4924 18.2938 13.6587 17.4824 14.0307C16.1418 14.6452 15.0069 15.6334 14.2138 16.8767C14.0067 17.2013 13.8352 17.5435 13.6889 17.9127C13.1911 19.1686 12.961 20.8263 12.6261 23.2384L12.5978 23.4424C12.3126 25.4959 12.0896 27.1011 12.0219 28.3942C11.9531 29.707 12.0363 30.801 12.4312 31.8054C13.0767 33.447 14.2686 34.8159 15.8058 35.6811C16.7463 36.2104 17.8185 36.4433 19.1283 36.5558C20.4183 36.6666 22.039 36.6666 24.1121 36.6666H26.3736C28.4468 36.6666 30.0674 36.6666 31.3575 36.5558C32.6673 36.4433 33.7395 36.2104 34.68 35.6811C36.2172 34.8159 37.4091 33.447 38.0546 31.8054C38.4495 30.801 38.5327 29.707 38.4639 28.3942C38.3962 27.1011 38.1732 25.4958 37.888 23.4423L37.8555 23.2082C37.5007 20.6522 37.2632 18.9406 36.6844 17.6454C36.564 17.3759 36.4279 17.121 36.272 16.8767C35.4789 15.6334 34.344 14.6452 33.0034 14.0307C32.192 13.6587 31.319 13.4924 30.2711 13.412ZM18.3158 15.8487C18.8273 15.6143 19.4388 15.4774 20.3676 15.4061C21.3089 15.3339 22.4988 15.3333 24.1601 15.3333H26.3257C27.987 15.3333 29.1768 15.3339 30.1182 15.4061C31.047 15.4774 31.6585 15.6143 32.17 15.8487C33.1329 16.2902 33.9522 16.9924 34.5357 17.875L33.8021 18.6085C31.5599 20.8508 29.9479 22.4598 28.5574 23.5206C27.1901 24.5639 26.1553 24.9823 25.0811 24.9823C24.007 24.9823 22.9721 24.5639 21.6048 23.5206C20.2144 22.4598 18.6023 20.8508 16.3601 18.6085L15.8256 18.074C15.8498 18.0326 15.8745 17.9921 15.8999 17.9523C16.4861 17.0333 17.325 16.303 18.3158 15.8487ZM35.3085 19.9305C35.5011 20.8206 35.6681 21.9974 35.9004 23.6701C36.1937 25.7812 36.4039 27.3016 36.4667 28.4988C36.5288 29.6861 36.4377 30.4519 36.1933 31.0735C35.7162 32.2869 34.8352 33.2987 33.699 33.9381C33.1169 34.2658 32.3709 34.4614 31.1863 34.5631C29.9919 34.6657 28.457 34.6666 26.3257 34.6666H24.1601C22.0288 34.6666 20.4939 34.6657 19.2995 34.5631C18.1149 34.4614 17.3689 34.2658 16.7868 33.9381C15.6505 33.2987 14.7696 32.2869 14.2925 31.0735C14.0481 30.4519 13.957 29.6861 14.0191 28.4988C14.0818 27.3016 14.2921 25.7812 14.5853 23.6701C14.7947 22.1626 14.9507 21.0569 15.1216 20.1985C17.2401 22.3168 18.9102 23.9804 20.3916 25.1107C21.9369 26.2897 23.3938 26.9823 25.0811 26.9823C26.7684 26.9823 28.2254 26.2897 29.7706 25.1107C31.2803 23.9588 32.9858 22.2532 35.1622 20.0769L35.3085 19.9305Z" fill="#F5F6FA"/>
<defs>
<linearGradient id="paint0_linear_750_442" x1="25" y1="0" x2="25" y2="50" gradientUnits="userSpaceOnUse">
<stop stop-color="#592FB4"/>
<stop offset="1" stop-color="#230086"/>
</linearGradient>
</defs>
</svg>
