<svg width="32" height="33" viewBox="0 0 32 33" fill="none" xmlns="http://www.w3.org/2000/svg">
<g clip-path="url(#clip0_563_134)">
<path fill-rule="evenodd" clip-rule="evenodd" d="M16 0.273438C7.1632 0.273438 -3.66864e-08 7.44784 -8.19553e-08 16.3006C-1.18159e-07 23.3806 4.584 29.3886 10.9424 31.507C11.7424 31.6542 12.0336 31.1598 12.0336 30.7342C12.0336 30.355 12.0208 29.3454 12.0128 28.0094C7.5616 28.9774 6.6224 25.8606 6.6224 25.8606C5.896 24.0078 4.8464 23.515 4.8464 23.515C3.3936 22.523 4.9568 22.5422 4.9568 22.5422C6.5616 22.6542 7.4064 24.1934 7.4064 24.1934C8.8336 26.6414 11.152 25.9342 12.0624 25.5246C12.2096 24.4894 12.6224 23.7838 13.08 23.3838C9.528 22.979 5.792 21.603 5.792 15.4622C5.792 13.7134 6.416 12.2814 7.4384 11.1614C7.2736 10.7566 6.7248 9.12624 7.5952 6.92144C7.5952 6.92144 8.9392 6.48944 11.9952 8.56304C13.3004 8.20706 14.6471 8.02574 16 8.02384C17.36 8.03024 18.728 8.20784 20.0064 8.56304C23.0608 6.48944 24.4016 6.91984 24.4016 6.91984C25.2752 9.12624 24.7248 10.7566 24.5616 11.1614C25.5856 12.2814 26.2064 13.7134 26.2064 15.4622C26.2064 21.619 22.464 22.9742 18.9008 23.371C19.4752 23.8654 19.9856 24.843 19.9856 26.339C19.9856 28.4798 19.9664 30.2094 19.9664 30.7342C19.9664 31.163 20.2544 31.6622 21.0672 31.5054C24.2533 30.4368 27.0229 28.3939 28.9848 25.6655C30.9466 22.9371 32.0014 19.6611 32 16.3006C32 7.44784 24.8352 0.273438 16 0.273438Z" fill="#F0F0F0"/>
</g>
<defs>
<clipPath id="clip0_563_134">
<rect width="32" height="32" fill="white" transform="translate(0 0.273438)"/>
</clipPath>
</defs>
</svg>
