<svg width="32" height="33" viewBox="0 0 32 33" fill="none" xmlns="http://www.w3.org/2000/svg">
<g clip-path="url(#clip0_563_129)">
<path d="M16 3.15469C20.275 3.15469 20.7813 3.17344 22.4625 3.24844C24.025 3.31719 24.8688 3.57969 25.4313 3.79844C26.175 4.08594 26.7125 4.43594 27.2688 4.99219C27.8313 5.55469 28.175 6.08594 28.4625 6.82969C28.6813 7.39219 28.9438 8.24219 29.0125 9.79844C29.0875 11.4859 29.1063 11.9922 29.1063 16.2609C29.1063 20.5359 29.0875 21.0422 29.0125 22.7234C28.9438 24.2859 28.6813 25.1297 28.4625 25.6922C28.175 26.4359 27.825 26.9734 27.2688 27.5297C26.7063 28.0922 26.175 28.4359 25.4313 28.7234C24.8688 28.9422 24.0188 29.2047 22.4625 29.2734C20.775 29.3484 20.2688 29.3672 16 29.3672C11.725 29.3672 11.2188 29.3484 9.5375 29.2734C7.975 29.2047 7.13125 28.9422 6.56875 28.7234C5.825 28.4359 5.2875 28.0859 4.73125 27.5297C4.16875 26.9672 3.825 26.4359 3.5375 25.6922C3.31875 25.1297 3.05625 24.2797 2.9875 22.7234C2.9125 21.0359 2.89375 20.5297 2.89375 16.2609C2.89375 11.9859 2.9125 11.4797 2.9875 9.79844C3.05625 8.23594 3.31875 7.39219 3.5375 6.82969C3.825 6.08594 4.175 5.54844 4.73125 4.99219C5.29375 4.42969 5.825 4.08594 6.56875 3.79844C7.13125 3.57969 7.98125 3.31719 9.5375 3.24844C11.2188 3.17344 11.725 3.15469 16 3.15469ZM16 0.273438C11.6563 0.273438 11.1125 0.292188 9.40625 0.367188C7.70625 0.442188 6.5375 0.717187 5.525 1.11094C4.46875 1.52344 3.575 2.06719 2.6875 2.96094C1.79375 3.84844 1.25 4.74219 0.8375 5.79219C0.44375 6.81094 0.16875 7.97344 0.09375 9.67344C0.01875 11.3859 0 11.9297 0 16.2734C0 20.6172 0.01875 21.1609 0.09375 22.8672C0.16875 24.5672 0.44375 25.7359 0.8375 26.7484C1.25 27.8047 1.79375 28.6984 2.6875 29.5859C3.575 30.4734 4.46875 31.0234 5.51875 31.4297C6.5375 31.8234 7.7 32.0984 9.4 32.1734C11.1063 32.2484 11.65 32.2672 15.9938 32.2672C20.3375 32.2672 20.8813 32.2484 22.5875 32.1734C24.2875 32.0984 25.4563 31.8234 26.4688 31.4297C27.5188 31.0234 28.4125 30.4734 29.3 29.5859C30.1875 28.6984 30.7375 27.8047 31.1438 26.7547C31.5375 25.7359 31.8125 24.5734 31.8875 22.8734C31.9625 21.1672 31.9813 20.6234 31.9813 16.2797C31.9813 11.9359 31.9625 11.3922 31.8875 9.68594C31.8125 7.98594 31.5375 6.81719 31.1438 5.80469C30.75 4.74219 30.2063 3.84844 29.3125 2.96094C28.425 2.07344 27.5313 1.52344 26.4813 1.11719C25.4625 0.723438 24.3 0.448438 22.6 0.373438C20.8875 0.292188 20.3438 0.273438 16 0.273438Z" fill="#F0F0F0"/>
<path d="M16 8.05469C11.4625 8.05469 7.78125 11.7359 7.78125 16.2734C7.78125 20.8109 11.4625 24.4922 16 24.4922C20.5375 24.4922 24.2188 20.8109 24.2188 16.2734C24.2188 11.7359 20.5375 8.05469 16 8.05469ZM16 21.6047C13.0563 21.6047 10.6687 19.2172 10.6687 16.2734C10.6687 13.3297 13.0563 10.9422 16 10.9422C18.9438 10.9422 21.3312 13.3297 21.3312 16.2734C21.3312 19.2172 18.9438 21.6047 16 21.6047Z" fill="#F0F0F0"/>
<path d="M26.4625 7.72954C26.4625 8.79204 25.6 9.64829 24.5438 9.64829C23.4813 9.64829 22.625 8.78579 22.625 7.72954C22.625 6.66704 23.4875 5.81079 24.5438 5.81079C25.6 5.81079 26.4625 6.67329 26.4625 7.72954Z" fill="#F0F0F0"/>
</g>
<defs>
<clipPath id="clip0_563_129">
<rect width="32" height="32" fill="white" transform="translate(0 0.273438)"/>
</clipPath>
</defs>
</svg>
