<svg width="32" height="32" viewBox="0 0 32 32" fill="none" xmlns="http://www.w3.org/2000/svg">
<g clip-path="url(#clip0_563_136)">
<path d="M29.6313 1.39728e-07L2.3625 1.11405e-08C1.05625 4.9808e-09 -5.27331e-09 1.03125 -1.1793e-08 2.30625L-1.51808e-07 29.6875C-1.58327e-07 30.9625 1.05625 32 2.3625 32L29.6313 32C30.9375 32 32 30.9625 32 29.6938L32 2.30625C32 1.03125 30.9375 1.45887e-07 29.6313 1.39728e-07ZM9.49375 27.2687L4.74375 27.2687L4.74375 11.9937L9.49375 11.9937L9.49375 27.2687ZM7.11875 9.9125C5.59375 9.9125 4.3625 8.68125 4.3625 7.1625C4.3625 5.64375 5.59375 4.4125 7.11875 4.4125C8.6375 4.4125 9.86875 5.64375 9.86875 7.1625C9.86875 8.675 8.6375 9.9125 7.11875 9.9125ZM27.2687 27.2687L22.525 27.2687L22.525 19.8438C22.525 18.075 22.4937 15.7937 20.0562 15.7937C17.5875 15.7937 17.2125 17.725 17.2125 19.7188L17.2125 27.2687L12.475 27.2687L12.475 11.9937L17.025 11.9937L17.025 14.0813L17.0875 14.0813C17.7187 12.8813 19.2688 11.6125 21.575 11.6125C26.3813 11.6125 27.2687 14.775 27.2687 18.8875L27.2687 27.2687Z" fill="#F0F0F0"/>
</g>
<defs>
<clipPath id="clip0_563_136">
<rect width="32" height="32" fill="white"/>
</clipPath>
</defs>
</svg>
