<svg width="50" height="50" viewBox="0 0 50 50" fill="none" xmlns="http://www.w3.org/2000/svg">
<rect width="50" height="50" rx="25" fill="url(#paint0_linear_750_443)"/>
<path fill-rule="evenodd" clip-rule="evenodd" d="M25 17.3333C22.2386 17.3333 20 19.5718 20 22.3333C20 25.0947 22.2386 27.3333 25 27.3333C27.7614 27.3333 30 25.0947 30 22.3333C30 19.5718 27.7614 17.3333 25 17.3333ZM22 22.3333C22 20.6764 23.3431 19.3333 25 19.3333C26.6568 19.3333 28 20.6764 28 22.3333C28 23.9901 26.6568 25.3333 25 25.3333C23.3431 25.3333 22 23.9901 22 22.3333Z" fill="#F5F6FA"/>
<path fill-rule="evenodd" clip-rule="evenodd" d="M25 9.33325C18.4889 9.33325 13.3333 14.9903 13.3333 21.8115C13.3333 23.9991 14.4201 26.5752 15.7875 28.9926C17.177 31.4492 18.9505 33.9015 20.5054 35.8843L20.5572 35.9505C21.3162 36.9184 21.9627 37.7429 22.5896 38.3124C23.2736 38.9338 24.0279 39.3406 25 39.3406C25.9721 39.3406 26.7263 38.9338 27.4103 38.3124C28.0373 37.7429 28.6838 36.9184 29.4428 35.9504L29.4946 35.8843C31.0495 33.9015 32.8229 31.4492 34.2125 28.9926C35.5798 26.5752 36.6666 23.9991 36.6666 21.8115C36.6666 14.9903 31.5111 9.33325 25 9.33325ZM15.3333 21.8115C15.3333 15.9542 19.729 11.3333 25 11.3333C30.2709 11.3333 34.6666 15.9542 34.6666 21.8115C34.6666 23.4468 33.8138 25.6351 32.4716 28.008C31.1516 30.3417 29.4456 32.7057 27.9208 34.6502C27.0955 35.7025 26.5521 36.39 26.0656 36.832C25.6218 37.2351 25.3255 37.3406 25 37.3406C24.6744 37.3406 24.3782 37.2351 23.9344 36.832C23.4478 36.39 22.9044 35.7025 22.0792 34.6502C20.5544 32.7057 18.8484 30.3417 17.5283 28.008C16.1861 25.6351 15.3333 23.4468 15.3333 21.8115Z" fill="#F5F6FA"/>
<defs>
<linearGradient id="paint0_linear_750_443" x1="25" y1="0" x2="25" y2="50" gradientUnits="userSpaceOnUse">
<stop stop-color="#592FB4"/>
<stop offset="1" stop-color="#230086"/>
</linearGradient>
</defs>
</svg>
