<svg width="119" height="20" viewBox="0 0 119 20" fill="none" xmlns="http://www.w3.org/2000/svg">
<g clip-path="url(#clip0_563_34)">
<path d="M3.78683 9.61005C3.78683 8.75179 3.08268 8.05603 2.21406 8.05603C1.34545 8.05603 0.641296 8.75179 0.641296 9.61005V17.8401C0.641296 18.6984 1.34545 19.3942 2.21406 19.3942C3.08268 19.3942 3.78683 18.6984 3.78683 17.8401V9.61005Z" fill="#F0F0F0"/>
<path d="M19.9384 9.31168C19.9384 8.45342 19.2342 7.75766 18.3656 7.75766C17.497 7.75766 16.7928 8.45342 16.7928 9.31168V17.8401C16.7928 18.6984 17.497 19.3942 18.3656 19.3942C19.2342 19.3942 19.9384 18.6984 19.9384 17.8401V9.31168Z" fill="#F0F0F0"/>
<path d="M3.25064 1.51682C2.59508 0.953749 1.60169 1.02239 1.03183 1.67012C0.461965 2.31786 0.53143 3.29942 1.18698 3.86249L9.18249 10.73C9.83804 11.2931 10.8314 11.2245 11.4013 10.5767C11.9712 9.92899 11.9017 8.94743 11.2461 8.38436L3.25064 1.51682Z" fill="#F0F0F0"/>
<path d="M9.31309 8.38911C8.65753 8.95218 8.58807 9.93373 9.15793 10.5815C9.72779 11.2292 10.7212 11.2978 11.3767 10.7348L19.3723 3.86724C20.0278 3.30417 20.0973 2.32262 19.5274 1.67488C18.9575 1.02714 17.9641 0.958505 17.3086 1.52157L9.31309 8.38911Z" fill="#F0F0F0"/>
<path d="M26.5483 0.497284H25.9947C25.7723 0.497284 25.592 0.675398 25.592 0.895113V18.9963C25.592 19.216 25.7723 19.3942 25.9947 19.3942H26.5483C26.7706 19.3942 26.9509 19.216 26.9509 18.9963V0.895113C26.9509 0.675398 26.7706 0.497284 26.5483 0.497284Z" fill="#F0F0F0"/>
<path d="M42.1753 17.3926C46.6156 17.3926 50.2153 13.8359 50.2153 9.44845C50.2153 5.06102 46.6156 1.5043 42.1753 1.5043C37.7349 1.5043 34.1353 5.06102 34.1353 9.44845C34.1353 13.8359 37.7349 17.3926 42.1753 17.3926Z" stroke="#F0F0F0" stroke-width="3"/>
<path d="M58.3559 0.497284H57.8023C57.5799 0.497284 57.3997 0.675398 57.3997 0.895113V18.9963C57.3997 19.216 57.5799 19.3942 57.8023 19.3942H58.3559C58.5783 19.3942 58.7586 19.216 58.7586 18.9963V0.895113C58.7586 0.675398 58.5783 0.497284 58.3559 0.497284Z" fill="#F0F0F0"/>
<path d="M67.5492 9.31168C67.5492 8.45342 66.845 7.75766 65.9764 7.75766C65.1078 7.75766 64.4036 8.45342 64.4036 9.31168V17.8401C64.4036 18.6984 65.1078 19.3942 65.9764 19.3942C66.845 19.3942 67.5492 18.6984 67.5492 17.8401V9.31168Z" fill="#F0F0F0"/>
<path d="M67.6711 2.31247C67.0156 1.7494 66.0222 1.81804 65.4523 2.46578C64.8824 3.11352 64.9519 4.09507 65.6075 4.65814L82.2822 18.9805C82.9377 19.5435 83.9311 19.4749 84.501 18.8272C85.0708 18.1794 85.0014 17.1979 84.3458 16.6348L67.6711 2.31247Z" fill="#F0F0F0"/>
<path d="M85.0131 2.84696C85.0131 1.9887 84.309 1.29294 83.4404 1.29294C82.5718 1.29294 81.8676 1.9887 81.8676 2.84696V11.3754C81.8676 12.2337 82.5718 12.9294 83.4404 12.9294C84.309 12.9294 85.0131 12.2337 85.0131 11.3754V2.84696Z" fill="#F0F0F0"/>
<path d="M91.6231 0.497284H91.0695C90.8471 0.497284 90.6669 0.675398 90.6669 0.895113V18.9963C90.6669 19.216 90.8471 19.3942 91.0695 19.3942H91.6231C91.8455 19.3942 92.0257 19.216 92.0257 18.9963V0.895113C92.0257 0.675398 91.8455 0.497284 91.6231 0.497284Z" fill="#F0F0F0"/>
<path d="M98.8746 16.6348C98.2191 17.1979 98.1496 18.1794 98.7195 18.8272C99.2893 19.4749 100.283 19.5435 100.938 18.9805L117.613 4.65814C118.269 4.09507 118.338 3.11352 117.768 2.46578C117.198 1.81804 116.205 1.74941 115.549 2.31248L98.8746 16.6348Z" fill="#F0F0F0"/>
<path d="M101.395 2.84696C101.395 1.9887 100.691 1.29294 99.8223 1.29294C98.9537 1.29294 98.2495 1.9887 98.2495 2.84696V11.3754C98.2495 12.2337 98.9537 12.9294 99.8223 12.9294C100.691 12.9294 101.395 12.2337 101.395 11.3754V2.84696Z" fill="#F0F0F0"/>
<path d="M112.925 12.7974C112.214 12.3048 111.233 12.4752 110.734 13.1782C110.235 13.8811 110.408 14.8503 111.119 15.3429L115.695 18.5113C116.406 19.004 117.387 18.8335 117.886 18.1306C118.384 17.4277 118.212 16.4585 117.5 15.9658L112.925 12.7974Z" fill="#F0F0F0"/>
</g>
<defs>
<clipPath id="clip0_563_34">
<rect width="118.8" height="20" fill="white"/>
</clipPath>
</defs>
</svg>
