<svg width="50" height="50" viewBox="0 0 50 50" fill="none" xmlns="http://www.w3.org/2000/svg">
<rect width="50" height="50" rx="25" fill="url(#paint0_linear_750_441)"/>
<path fill-rule="evenodd" clip-rule="evenodd" d="M19.8157 12.9667C18.4129 11.6778 16.2567 11.6778 14.8539 12.9667C14.7965 13.0195 14.7352 13.0809 14.6555 13.1605L13.4589 14.3572C12.2547 15.5613 11.7492 17.2972 12.1186 18.9596C14.2146 28.3914 21.5806 35.7575 31.0125 37.8534C32.6748 38.2228 34.4107 37.7173 35.6149 36.5132L36.8114 35.3167C36.8911 35.237 36.9525 35.1756 37.0053 35.1181C38.2943 33.7153 38.2943 31.5591 37.0053 30.1563C36.9525 30.0989 36.8911 30.0375 36.8114 29.9578L34.8524 27.9988C33.4923 26.6387 31.4382 26.2497 29.6749 27.0183C28.6655 27.4583 27.4895 27.2356 26.7109 26.4569L23.5151 23.2612C22.7365 22.4825 22.5138 21.3066 22.9538 20.2971C23.7224 18.5338 23.3334 16.4798 21.9733 15.1196L20.0142 13.1605C19.9345 13.0809 19.8732 13.0195 19.8157 12.9667ZM16.2072 14.4394C16.8448 13.8535 17.8249 13.8535 18.4625 14.4394C18.4845 14.4596 18.5134 14.4882 18.6148 14.5896L20.559 16.5339C21.3377 17.3125 21.5604 18.4885 21.1204 19.4979C20.3518 21.2612 20.7408 23.3153 22.1009 24.6754L25.2967 27.8711C26.6568 29.2313 28.7108 29.6203 30.4741 28.8517C31.4836 28.4116 32.6595 28.6343 33.4382 29.413L35.3825 31.3573C35.4839 31.4587 35.5124 31.4875 35.5326 31.5096C36.1185 32.1472 36.1185 33.1273 35.5326 33.7649C35.5124 33.7869 35.4839 33.8158 35.3825 33.9172L34.2007 35.099C33.48 35.8196 32.4412 36.1221 31.4463 35.901C22.7725 33.9735 15.9985 27.1995 14.071 18.5257C13.8499 17.5309 14.1524 16.492 14.8731 15.7714L16.0549 14.5896C16.1563 14.4882 16.1851 14.4596 16.2072 14.4394Z" fill="#F5F6FA"/>
<defs>
<linearGradient id="paint0_linear_750_441" x1="25" y1="0" x2="25" y2="50" gradientUnits="userSpaceOnUse">
<stop stop-color="#592FB4"/>
<stop offset="1" stop-color="#230086"/>
</linearGradient>
</defs>
</svg>
