<svg width="32" height="33" viewBox="0 0 32 33" fill="none" xmlns="http://www.w3.org/2000/svg">
<g clip-path="url(#clip0_563_139)">
<path d="M31.6812 9.87358C31.6812 9.87358 31.3688 7.66733 30.4062 6.69858C29.1875 5.42358 27.825 5.41733 27.2 5.34233C22.725 5.01733 16.0063 5.01733 16.0063 5.01733L15.9937 5.01733C15.9937 5.01733 9.275 5.01733 4.8 5.34233C4.175 5.41733 2.8125 5.42358 1.59375 6.69858C0.63125 7.66733 0.325 9.87358 0.325 9.87358C0.325 9.87358 -3.80957e-08 12.4673 -5.13269e-08 15.0548L-6.37272e-08 17.4798C-7.69584e-08 20.0673 0.31875 22.6611 0.31875 22.6611C0.31875 22.6611 0.63125 24.8673 1.5875 25.8361C2.80625 27.1111 4.40625 27.0673 5.11875 27.2048C7.68125 27.4486 16 27.5236 16 27.5236C16 27.5236 22.725 27.5111 27.2 27.1923C27.825 27.1173 29.1875 27.1111 30.4062 25.8361C31.3688 24.8673 31.6812 22.6611 31.6812 22.6611C31.6812 22.6611 32 20.0736 32 17.4798L32 15.0548C32 12.4673 31.6812 9.87358 31.6812 9.87358ZM12.6938 20.4236L12.6938 11.4298L21.3375 15.9423L12.6938 20.4236Z" fill="#F0F0F0"/>
</g>
<defs>
<clipPath id="clip0_563_139">
<rect width="32" height="32" fill="white" transform="translate(0 0.273438)"/>
</clipPath>
</defs>
</svg>
